<svg xmlns="http://www.w3.org/2000/svg" width="100%" height="auto" viewBox="0 0 1024 424" version="1.1">
	<path d="M 200.500 6.147 C 185.527 11.082, 168.247 23.722, 147.923 44.605 C 137.574 55.238, 121.657 74.984, 120.209 78.984 C 119.907 79.818, 118.246 82.750, 116.518 85.500 C 113.652 90.061, 100.814 115.741, 99.021 120.500 C 98.034 123.121, 95.787 128.739, 93.022 135.500 C 89.534 144.031, 84.876 159.190, 82.524 169.664 C 81.763 173.054, 80.422 177.216, 79.545 178.914 L 77.949 182 67.427 182 C 57.333 182, 56.805 182.108, 54.452 184.646 C 51.606 187.717, 51.390 189.684, 53.557 192.777 C 55.092 194.969, 55.446 195, 79.106 195 C 106.758 195, 109 194.515, 109 188.531 C 109 184.614, 106.171 182, 101.932 182 C 98.183 182, 96 179.101, 96 174.121 C 96 170.670, 102.778 147.351, 106.063 139.500 C 106.523 138.400, 107.610 135.309, 108.478 132.631 C 110.452 126.544, 111.701 124.103, 114.299 121.250 C 116.334 119.017, 116.559 119, 145.052 119 C 169.139 119, 173.952 119.237, 174.980 120.476 C 176.208 121.955, 176.160 122.869, 174.117 137 C 173.600 140.575, 172.686 147.775, 172.086 153 C 171.486 158.225, 170.586 164.525, 170.085 167 C 169.584 169.475, 168.848 173.300, 168.449 175.500 C 167.396 181.299, 166.488 182, 160.031 182 C 153.455 182, 148.930 183.893, 147.032 187.440 C 145.901 189.553, 145.951 190.277, 147.378 192.455 L 149.046 195 176.888 195 C 203.541 195, 204.843 194.911, 207.365 192.927 C 210.469 190.486, 210.886 186.111, 208.243 183.720 C 207.272 182.842, 204.250 181.988, 201.493 181.815 L 196.500 181.500 196.697 177.500 C 196.956 172.243, 198.388 161.759, 200.452 150 C 201.370 144.775, 202.557 137.575, 203.091 134 C 203.625 130.425, 204.537 124.575, 205.117 121 C 205.697 117.425, 206.549 112.025, 207.011 109 C 207.472 105.975, 208.088 102.375, 208.379 101 C 208.670 99.625, 209.398 95.350, 209.997 91.500 C 211.329 82.929, 213.764 68.239, 214.970 61.500 C 216.021 55.621, 217.484 46.452, 219.038 36 C 219.651 31.875, 220.534 26.700, 221 24.500 C 224.690 7.075, 223.666 4.961, 211.595 5.079 C 207.143 5.122, 202.150 5.603, 200.500 6.147 M 877 17.257 C 868.958 21.194, 855.765 34.043, 851.607 41.987 C 847.322 50.176, 844.990 58.182, 844.842 65.216 C 844.712 71.387, 843.128 75, 840.553 75 C 839.928 75, 835.610 77.342, 830.958 80.204 C 822.157 85.618, 809.593 97.312, 807.002 102.500 C 806.177 104.150, 805.197 105.732, 804.824 106.015 C 804.450 106.298, 802.987 109.977, 801.572 114.191 C 799.401 120.659, 799 123.650, 799 133.391 C 799 145.798, 800.486 152.434, 805.294 161.500 C 805.877 162.600, 806.856 164.455, 807.468 165.623 C 812.114 174.485, 826.898 186.366, 840 191.768 C 855.473 198.146, 877.048 200.811, 889.736 197.911 C 916.353 191.827, 928.411 181.511, 942.010 153.191 C 944.205 148.621, 946 144.260, 946 143.500 C 946 142.740, 946.450 141.840, 947 141.500 C 947.550 141.160, 948 139.649, 948 138.141 C 948 136.633, 948.403 134.973, 948.895 134.450 C 949.387 133.928, 949.974 130.419, 950.199 126.652 C 950.545 120.847, 950.979 119.512, 953.054 117.881 C 954.399 116.823, 958.650 113.541, 962.500 110.588 C 966.350 107.635, 970.625 104.219, 972 102.998 C 973.375 101.776, 976.458 99.161, 978.850 97.186 C 983.983 92.949, 989.901 84.440, 992.427 77.665 C 996.674 66.277, 993.707 51.003, 986.118 45.186 C 978.916 39.665, 974.481 38.800, 969.366 41.919 C 962.835 45.901, 961.027 54.735, 965.805 59.313 C 968.159 61.568, 969.500 62, 974.150 62 C 978.382 62, 980.109 62.463, 981.464 63.960 C 983.836 66.582, 982.932 69.854, 977.820 77.142 C 972.761 84.353, 961.777 91.616, 945.500 98.512 C 935.194 102.878, 920.351 110.898, 913.500 115.803 C 894.895 129.122, 888.660 141.280, 895.919 150.085 C 899.911 154.928, 905.579 156.786, 909.763 154.623 C 916.691 151.040, 918.658 144.334, 915 136.764 C 913.900 134.487, 913 132.270, 913 131.838 C 913 130.005, 930.510 123, 935.091 123 C 936.520 123, 938.496 123.890, 939.481 124.979 C 941.073 126.738, 941.136 127.486, 940.043 131.729 C 939.367 134.353, 938.429 137.400, 937.958 138.500 C 937.486 139.600, 936.416 142.614, 935.580 145.198 C 932.351 155.171, 929.573 159.571, 921.298 167.817 C 911.874 177.206, 906.787 180.005, 894.500 182.562 C 887.763 183.963, 885.474 184.038, 880 183.037 C 857.633 178.948, 838.720 164.267, 833.598 147.017 C 830.855 137.780, 832.157 115.530, 835.867 108.263 C 836.362 107.293, 837.376 105.150, 838.121 103.500 C 840.427 98.390, 845.051 93.223, 847.786 92.700 C 851.432 92.004, 854.290 93.305, 859.341 97.960 C 864.006 102.260, 868.359 104.419, 876.799 106.619 C 883.467 108.357, 883.985 108.348, 890.846 106.371 C 894.867 105.213, 897.583 103.612, 900.250 100.829 C 903.620 97.312, 904 96.379, 904 91.612 C 904 82.448, 899.584 76.930, 889.048 72.926 C 885.221 71.472, 881.425 71, 873.554 71 C 867.821 71, 861.988 70.566, 860.593 70.035 C 852.225 66.854, 859.310 45.965, 871.625 37.513 C 877.138 33.730, 877.819 33.526, 884.978 33.526 C 891.697 33.526, 892.960 33.841, 896.532 36.409 C 902.551 40.736, 903.954 43.196, 904.957 51.184 C 906.450 63.078, 910.696 63.630, 918.941 53 C 923.871 46.643, 923.982 46.349, 923.991 39.636 C 923.998 34.386, 923.478 31.843, 921.780 28.822 C 919.258 24.336, 912.241 18.898, 906.427 16.924 C 904.267 16.191, 902.072 15.234, 901.550 14.796 C 901.028 14.358, 896.753 14.017, 892.050 14.037 C 884.512 14.070, 882.731 14.451, 877 17.257 M 186 23.846 C 176.207 30.194, 136.096 75.357, 132.987 83.535 C 132.536 84.720, 131.561 86.322, 130.819 87.095 C 130.077 87.868, 128.375 90.596, 127.036 93.158 C 122.930 101.013, 122.888 101, 152.948 101 C 178.329 101, 178.677 100.972, 180.702 98.750 C 181.829 97.513, 183.032 94.475, 183.374 92 C 183.992 87.523, 185.072 81.585, 186.829 73 C 190.001 57.500, 193.830 33.403, 194.219 26.500 C 194.463 22.149, 194.240 21.463, 192.500 21.214 C 191.400 21.057, 188.475 22.241, 186 23.846 M 243.223 54.557 C 239.980 56.828, 240.327 60.601, 243.950 62.474 C 245.573 63.313, 248.218 64, 249.828 64 C 255.979 64, 256.174 67.132, 251.569 92 C 248.730 107.327, 247.605 113.745, 246.046 123.500 C 245.519 126.800, 244.634 132.200, 244.079 135.500 C 242.506 144.858, 241.237 152.861, 240.073 160.767 C 237.577 177.715, 236.286 180, 229.213 180 C 225.375 180, 224.256 180.510, 221.368 183.571 C 217.299 187.886, 217.190 189.218, 220.682 191.965 C 223.336 194.052, 223.859 194.072, 269.618 193.787 L 315.870 193.500 319.016 190.500 C 321.887 187.761, 323.215 185.399, 327.731 175 C 328.567 173.075, 330.795 168.190, 332.682 164.145 C 334.606 160.020, 335.978 155.629, 335.806 154.145 C 335.548 151.911, 334.957 151.458, 332 151.228 C 328.770 150.976, 328.204 151.384, 324.668 156.509 C 318.228 165.842, 310.059 173.941, 303.999 177 C 294.063 182.016, 268.017 183.264, 262.724 178.978 C 260.448 177.135, 260.495 176.401, 264.158 156.500 C 265.542 148.984, 266.721 142.224, 267.911 135 C 268.499 131.425, 269.450 126.025, 270.025 123 C 270.599 119.975, 271.738 113.450, 272.557 108.500 C 273.375 103.550, 274.505 96.800, 275.066 93.500 C 275.628 90.200, 276.520 84.800, 277.048 81.500 C 278.951 69.602, 279.267 68.467, 281.293 66.250 C 282.832 64.566, 284.461 64, 287.770 64 C 292.502 64, 298 61.008, 298 58.432 C 298 57.644, 297.100 56.100, 296 55 C 294.110 53.110, 292.667 53, 269.723 53 C 249.368 53, 245.086 53.252, 243.223 54.557 M 363.628 55.250 C 361.635 57.055, 361.322 57.948, 362.045 59.765 C 363.046 62.280, 366.660 64, 370.943 64 C 377.036 64, 377.077 66.534, 371.479 97.500 C 369.069 110.830, 367.635 119.258, 366.461 127 C 366.170 128.925, 365.501 132.975, 364.975 136 C 364.449 139.025, 362.866 148.700, 361.456 157.499 C 358.286 177.287, 357.281 179.309, 350.255 180.022 C 343.741 180.684, 340 183.849, 340 188.699 C 340 191.408, 340.510 192.244, 342.664 193.062 C 344.364 193.709, 361.839 193.971, 390.914 193.788 C 432.376 193.526, 436.733 193.342, 439.072 191.752 C 441.568 190.055, 443.421 186.894, 448.014 176.500 C 449.230 173.750, 451.235 169.250, 452.470 166.500 C 458.204 153.735, 458.273 150.651, 452.810 151.186 C 450.164 151.445, 448.685 152.719, 444.317 158.500 C 437.062 168.102, 428.225 176.120, 422.376 178.407 C 415.198 181.214, 388.161 181.991, 384.359 179.500 C 381.929 177.907, 381.788 177.418, 382.382 172.643 C 382.733 169.814, 383.464 165.250, 384.006 162.500 C 384.548 159.750, 385.461 154.800, 386.035 151.500 C 386.610 148.200, 387.476 143.250, 387.959 140.500 C 389.530 131.573, 390.980 123.122, 391.948 117.250 C 392.470 114.088, 394.095 104.750, 395.560 96.500 C 397.025 88.250, 398.575 79.025, 399.005 76 C 400.505 65.450, 401.767 64, 409.447 64 C 413.860 64, 419 61.095, 419 58.602 C 419 57.913, 417.958 56.370, 416.686 55.174 C 414.441 53.066, 413.640 53, 390.241 53 C 366.621 53, 366.059 53.047, 363.628 55.250 M 479.068 55.904 C 476.459 59.569, 476.480 60.163, 479.314 62.826 C 481.159 64.559, 482.845 65, 487.623 65 C 490.993 65, 494.404 65.575, 495.413 66.312 C 497.120 67.561, 497.129 68.109, 495.596 77.562 C 494.710 83.028, 493.722 88.850, 493.400 90.500 C 493.079 92.150, 492.376 96.875, 491.838 101 C 491.300 105.125, 490.473 111.200, 490 114.500 C 489.008 121.424, 487.443 132.651, 486.167 142 C 482.620 167.982, 480.771 177.594, 478.963 179.441 C 477.437 181, 475.276 181.466, 467.973 181.816 C 459.664 182.213, 458.744 182.461, 457.275 184.703 C 454.702 188.630, 456.537 192.295, 461.519 193.179 C 466.519 194.065, 543.623 194.208, 550.821 193.344 C 557.029 192.598, 560.706 189.573, 562.887 183.416 C 563.651 181.262, 565.338 177.278, 566.637 174.563 C 567.937 171.847, 569 169.029, 569 168.299 C 569 167.570, 569.397 166.191, 569.883 165.236 C 574.261 156.630, 575.016 149, 571.488 149 C 570.731 149, 568.173 151.326, 565.805 154.170 C 547.159 176.558, 538.208 181.904, 519.250 181.971 C 512.210 181.996, 510.696 181.696, 508.925 179.925 C 506.748 177.748, 506.751 176.453, 508.961 165 C 509.439 162.525, 510.348 157.125, 510.981 153 C 511.614 148.875, 512.552 143.873, 513.066 141.884 C 513.580 139.895, 514 137.368, 514 136.269 C 514 132.753, 517.795 129, 521.350 129 C 525.976 129, 528.774 131.428, 530.331 136.795 C 531.523 140.900, 532.073 141.538, 534.650 141.799 C 539.778 142.317, 540.760 139.964, 545.207 116.500 C 546.944 107.334, 547.253 100.010, 545.968 98.462 C 542.469 94.245, 536.992 99.171, 535.525 107.854 C 534.613 113.248, 530.328 117, 525.078 117 C 519.078 117, 517.656 114.662, 518.908 106.859 C 520.065 99.650, 521.514 91.823, 523.046 84.500 C 523.621 81.750, 524.450 77.289, 524.887 74.588 C 526.197 66.505, 527.431 66, 545.888 66 C 565.473 66, 566.540 66.475, 565.680 74.813 C 565.366 77.851, 565.551 81.161, 566.090 82.168 C 567.410 84.634, 573.134 84.615, 575.377 82.136 C 579.389 77.702, 583.478 57.485, 580.972 54.466 C 579.933 53.214, 572.553 53, 530.446 53 L 481.136 53 479.068 55.904 M 621.557 55.223 C 618.328 59.832, 620.644 63.906, 626.527 63.968 C 630.851 64.014, 634.329 66.683, 633.563 69.367 C 632.201 74.132, 627.638 99.086, 624.852 117 C 624.296 120.575, 623.481 125.750, 623.041 128.500 C 622.601 131.250, 621.938 135.750, 621.569 138.500 C 621.199 141.250, 620.492 145.075, 619.996 147 C 619.501 148.925, 618.380 155.450, 617.505 161.500 C 614.573 181.779, 613.260 184, 604.205 184 C 599.871 184, 597 186.308, 597 189.794 C 597 193.449, 599.976 194, 619.712 194 C 640.164 194, 643 193.338, 643 188.566 C 643 185.665, 641.469 184.430, 637 183.727 C 635.075 183.423, 632.213 182.678, 630.639 182.070 C 628.092 181.086, 627.845 180.611, 628.385 177.733 C 628.719 175.955, 629.424 171.800, 629.952 168.500 C 631.220 160.577, 632.755 151.773, 634.049 145 C 634.627 141.975, 635.465 137.250, 635.912 134.500 C 638.555 118.228, 642.191 99.179, 643.032 97.194 C 644.164 94.519, 645.312 94.946, 647.273 98.770 C 648.043 100.271, 649.705 103.300, 650.967 105.500 C 652.228 107.700, 655.295 113.325, 657.782 118 C 660.269 122.675, 664.260 130.042, 666.652 134.372 C 669.043 138.701, 671 142.390, 671 142.568 C 671 142.747, 672.508 145.504, 674.350 148.696 C 678.008 155.032, 686.830 171.718, 691.959 182 C 693.742 185.575, 695.537 189.175, 695.948 190 C 697.477 193.067, 701.295 194.104, 709.677 193.731 C 718.521 193.336, 720.443 192.429, 721.343 188.228 C 721.664 186.727, 722.654 182.125, 723.543 178 C 725.273 169.972, 726.674 162.681, 728.107 154.250 C 728.598 151.362, 729.450 146.525, 730 143.500 C 731.103 137.432, 732.287 130.625, 733.827 121.500 C 734.972 114.713, 737.595 100.219, 739.164 92 C 740.323 85.931, 741.776 77.493, 742.638 71.816 C 743.405 66.766, 745.851 64.857, 751.906 64.585 C 755.135 64.440, 757.674 63.700, 758.973 62.524 C 761.588 60.158, 761.640 55.413, 759.066 54.035 C 757.932 53.429, 749.474 53, 738.638 53 L 720.145 53 718.073 55.635 C 714.054 60.744, 716.659 65, 723.806 65 C 727.012 65, 728.283 65.511, 729.402 67.250 C 730.688 69.249, 730.530 71.561, 727.984 88 C 724.696 109.233, 723.254 117.842, 722.038 123.500 C 721.565 125.700, 720.665 130.650, 720.038 134.500 C 719.411 138.350, 718.507 143.300, 718.030 145.500 C 717.553 147.700, 716.600 152.106, 715.912 155.291 C 715.224 158.475, 714.090 161.850, 713.392 162.791 C 711.454 165.400, 710.451 164.064, 703.038 149 C 700.319 143.474, 688.634 121.315, 688.010 120.500 C 687.589 119.950, 684.420 114.100, 680.968 107.500 C 677.516 100.900, 673.029 92.350, 670.997 88.500 C 668.965 84.650, 664.513 76.100, 661.106 69.500 C 652.416 52.671, 652.906 53, 636.501 53 C 623.800 53, 623.034 53.114, 621.557 55.223 M 869.750 83.572 C 866.497 85.337, 866.366 86.448, 868.921 90.638 C 871.291 94.525, 881.063 99.439, 884.892 98.669 C 890.243 97.595, 892.757 96.105, 893.375 93.642 C 894.289 90, 892.516 86.285, 888.775 84.004 C 884.737 81.542, 873.944 81.297, 869.750 83.572 M 82.642 214.034 C 72.159 215.290, 61.660 220.017, 49.659 228.883 C 43.537 233.405, 29.091 248.547, 26.963 252.671 C 26.160 254.227, 25.274 255.725, 24.994 256 C 23.948 257.027, 15.478 273.513, 13.949 277.500 C 9.281 289.666, 6.993 302.457, 6.302 320.248 C 5.742 334.635, 6.862 344.209, 9.956 351.500 C 10.423 352.600, 11.828 356.200, 13.079 359.500 C 16.103 367.480, 19.790 372.753, 27.826 380.589 C 38.908 391.395, 49.598 398.771, 56.500 400.372 C 72.661 404.121, 82.158 404.783, 92.440 402.877 C 98.750 401.707, 99.890 401.348, 106.500 398.450 C 114.477 394.953, 128.715 382.776, 131.901 376.728 C 133.039 374.566, 133.063 373.781, 132.028 372.534 C 129.270 369.211, 125.182 370.830, 116.773 378.577 C 103.642 390.673, 84.563 395.808, 71.273 390.825 C 63.772 388.012, 52.832 377.972, 47.705 369.196 C 43.870 362.631, 39.745 349.734, 38.123 339.231 C 36.756 330.385, 36.649 308.616, 37.943 302.764 C 38.462 300.419, 39.396 296.025, 40.019 293 C 42.753 279.715, 49.674 262.695, 56.194 253.218 C 60.477 246.993, 72.586 234.376, 77.485 231.034 C 83.025 227.255, 92.227 224, 97.372 224 C 101.476 224, 112.562 226.951, 116.236 229.022 C 117.191 229.560, 118.638 230, 119.450 230 C 121.991 230, 133.972 242.056, 136.254 246.909 C 137.441 249.434, 139.557 254.875, 140.956 259 C 143.204 265.628, 143.788 266.500, 145.975 266.500 C 148.241 266.500, 148.639 265.779, 150.671 258 C 151.893 253.325, 152.916 248.289, 152.946 246.809 C 152.976 245.329, 153.402 243.869, 153.894 243.565 C 154.386 243.261, 155.030 241.322, 155.325 239.256 C 155.621 237.190, 156.353 232.886, 156.954 229.692 C 157.555 226.497, 157.773 223.441, 157.439 222.901 C 156.818 221.897, 152.903 222.685, 152 223.995 C 150.937 225.539, 144.966 228, 142.300 227.994 C 140.760 227.990, 138.375 227.376, 137 226.628 C 126.601 220.970, 123.065 219.232, 120.939 218.733 C 119.597 218.419, 114.900 217.265, 110.500 216.169 C 100.458 213.668, 91.452 212.978, 82.642 214.034 M 218 261.468 C 199.968 265.429, 186.813 273.131, 172.642 288.021 C 160.832 300.432, 152.671 315.932, 149.750 331.500 C 148.262 339.434, 147.664 363.064, 148.920 364.320 C 149.514 364.914, 150 366.281, 150 367.359 C 150 371.236, 157.348 383.991, 162.546 389.136 C 168.186 394.718, 175.567 399.254, 181.038 400.498 C 185.882 401.600, 203.503 401.471, 209.500 400.289 C 218.232 398.568, 228.229 393.910, 237 387.475 C 248.099 379.332, 260.668 360.290, 266.028 343.500 C 267.257 339.650, 268.624 335.600, 269.066 334.500 C 272.729 325.379, 272.727 302.138, 269.063 292.500 C 262.190 274.425, 251.738 265.071, 234.349 261.433 C 226.558 259.803, 225.572 259.805, 218 261.468 M 668.447 262.895 C 663.563 265.157, 659.201 268.865, 645.859 282.099 C 636.764 291.119, 625.936 302.775, 621.796 308 C 614.400 317.333, 595 345.167, 595 346.445 C 595 346.803, 593.519 349.437, 591.708 352.298 C 588.339 357.622, 585.762 362.807, 579.927 376 C 573.692 390.098, 570.922 392.945, 563.405 392.978 C 559.760 392.994, 557.839 393.520, 556.655 394.829 C 554.534 397.172, 554.570 398.300, 556.829 400.345 C 558.388 401.756, 561.313 402, 576.674 402 C 592.858 402, 594.858 401.814, 596.345 400.171 C 599.596 396.579, 598.073 393.781, 592.182 392.521 C 590.358 392.131, 588.628 391.193, 588.338 390.437 C 587.715 388.816, 590.300 381.646, 594.209 374.148 C 595.744 371.205, 597 368.383, 597 367.877 C 597 366.719, 601.743 359.237, 604.370 356.250 C 606.286 354.072, 606.927 354, 624.552 354 C 639.811 354, 642.964 354.252, 644.048 355.557 C 645.105 356.831, 645.103 358.882, 644.037 366.807 C 642.264 379.995, 640.384 388.833, 638.994 390.507 C 638.358 391.274, 635.736 392.204, 633.168 392.573 C 625.849 393.626, 623.112 396.981, 626.829 400.345 C 628.424 401.788, 631.730 402, 652.674 402 C 675.076 402, 676.807 401.871, 678.425 400.082 C 679.380 399.028, 680.012 397.124, 679.830 395.852 C 679.553 393.911, 678.534 393.325, 673.500 392.214 C 670.200 391.485, 667.124 390.516, 666.664 390.059 C 665.781 389.181, 667.341 375.744, 669.982 361.500 C 670.491 358.750, 671.379 353.800, 671.953 350.500 C 672.528 347.200, 673.933 339.550, 675.074 333.500 C 676.216 327.450, 677.608 319.800, 678.168 316.500 C 678.727 313.200, 679.573 308.250, 680.048 305.500 C 680.522 302.750, 681.168 298.925, 681.482 297 C 681.797 295.075, 682.480 291.250, 682.999 288.500 C 683.519 285.750, 684.725 279.057, 685.679 273.627 L 687.413 263.753 685.096 261.877 C 681.773 259.186, 675.647 259.561, 668.447 262.895 M 480 262.237 C 478.249 263.154, 477.405 264.532, 477.182 266.838 C 476.683 271.999, 478.222 273, 486.654 273 C 492.536 273, 494.190 273.331, 494.679 274.607 C 495.234 276.051, 494.608 281.949, 491.932 300.500 C 490.437 310.864, 489.024 320.283, 488.031 326.500 C 487.504 329.800, 486.640 335.425, 486.111 339 C 485.582 342.575, 484.405 349.550, 483.495 354.500 C 481.866 363.358, 480.677 370.496, 479.141 380.649 C 478.713 383.481, 477.595 386.969, 476.658 388.399 C 475.073 390.818, 474.429 391, 467.442 391 C 462.211 391, 459.181 391.490, 457.465 392.615 C 454.540 394.532, 454.253 398.014, 456.829 400.345 C 458.449 401.811, 462.251 402, 490.174 402 C 519.436 402, 521.808 401.869, 523.345 400.171 C 527.219 395.890, 523.607 392.185, 514.850 391.456 C 506.904 390.795, 505.949 388.617, 508.071 376 C 508.580 372.975, 509.481 367.350, 510.073 363.500 C 510.665 359.650, 511.532 354.025, 512 351 C 512.468 347.975, 513.311 342.350, 513.873 338.500 C 515.580 326.820, 516.914 318.439, 518.613 308.742 C 520.655 297.080, 521.850 289.056, 522.624 281.799 C 523.495 273.644, 524.963 272.608, 534.722 273.257 C 543.924 273.869, 549.464 276.305, 554.032 281.746 C 566.681 296.813, 557.830 323.504, 537 333.104 C 533.425 334.752, 529.825 336.463, 529 336.907 C 526.587 338.206, 526.663 340.902, 529.172 342.993 C 533.107 346.273, 544.785 345.636, 554 341.638 C 558.420 339.721, 567.416 333.331, 570.326 330.042 C 574.037 325.846, 578.724 317.225, 580.532 311.268 C 582.138 305.974, 582.501 291.940, 581.101 289.236 C 580.606 288.281, 579.144 285.318, 577.851 282.651 C 573.047 272.740, 561.956 266.395, 543.500 262.999 C 533.953 261.242, 483.068 260.632, 480 262.237 M 719.198 262.750 C 716.293 265.261, 715.614 268.433, 717.622 270.109 C 718.540 270.874, 721.587 271.950, 724.395 272.500 C 728.985 273.399, 729.533 273.788, 729.827 276.357 C 730.007 277.929, 729.680 280.404, 729.102 281.857 C 727.893 284.896, 724.592 303.119, 721.469 324 C 721.181 325.925, 720.533 329.750, 720.028 332.500 C 719.524 335.250, 718.613 340.650, 718.004 344.500 C 712.717 377.937, 710.866 387.491, 709.349 389.167 C 708.171 390.469, 706.271 391, 702.797 391 C 698.791 391, 697.460 391.479, 695.452 393.646 C 692.560 396.767, 692.541 396.899, 694.557 399.777 C 696.076 401.947, 696.587 402, 715.902 402 C 733.802 402, 735.848 401.826, 737.345 400.171 C 741.200 395.912, 737.748 391, 730.900 391 C 724.251 391, 723.945 388.495, 728.034 367.500 C 728.985 362.619, 730.355 354.576, 731.952 344.500 C 732.727 339.607, 735.946 322.435, 738.325 310.500 C 739.097 306.627, 740.013 304.500, 740.908 304.500 C 742.222 304.500, 745.741 310.315, 755.431 328.500 C 757.776 332.900, 761.171 339.200, 762.976 342.500 C 764.781 345.800, 767.942 351.650, 770 355.500 C 772.058 359.350, 774.648 364.109, 775.756 366.076 C 776.864 368.042, 780.131 374.117, 783.017 379.576 C 795.929 404, 794.064 402.144, 805.332 401.785 C 813.572 401.523, 814.438 401.299, 816.119 399 C 817.743 396.779, 820.969 382.902, 824.138 364.500 C 824.706 361.200, 825.578 356.250, 826.076 353.500 C 826.574 350.750, 827.439 345.800, 828 342.500 C 828.561 339.200, 829.426 334.250, 829.924 331.500 C 830.422 328.750, 831.288 323.800, 831.848 320.500 C 832.992 313.765, 835.656 299.071, 837.106 291.500 C 837.632 288.750, 838.329 284.250, 838.654 281.500 C 839.478 274.530, 841.106 273, 847.700 273 C 852.090 273, 853.547 272.544, 855.545 270.545 C 858.595 267.496, 858.680 264.589, 855.777 262.557 C 853.975 261.294, 850.303 261, 836.343 261 C 826.876 261, 817.968 261.442, 816.547 261.982 C 812.956 263.347, 811.475 267.549, 813.496 270.635 C 814.730 272.518, 815.927 273, 819.368 273 C 826.280 273, 827.466 275.054, 826.126 284.695 C 824.944 293.195, 822.577 308.016, 820.885 317.500 C 819.562 324.920, 818.271 332.394, 817.518 337 C 816.580 342.732, 815.165 349.918, 812.953 360.183 C 810.920 369.619, 808.934 373.334, 806.973 371.373 C 806.454 370.854, 802.276 363.021, 797.687 353.965 C 793.098 344.909, 787.288 333.675, 784.776 329 C 782.263 324.325, 778.171 316.675, 775.682 312 C 773.193 307.325, 769.099 299.675, 766.584 295 C 764.069 290.325, 759.455 281.408, 756.331 275.185 C 752.211 266.979, 749.888 263.476, 747.875 262.435 C 745.918 261.423, 741.578 261, 733.160 261 C 723.228 261, 720.881 261.294, 719.198 262.750 M 870 262.294 C 867.970 263.321, 867.500 264.300, 867.500 267.500 C 867.500 272.257, 870.025 273.963, 877.102 273.985 C 882.837 274.004, 887.377 276.928, 890.553 282.648 C 891.819 284.929, 895.436 290.779, 898.591 295.648 C 908.044 310.239, 912.374 317.116, 916.951 324.808 L 921.300 332.116 920.095 339.308 C 919.432 343.264, 918.487 348.525, 917.993 351 C 917.500 353.475, 916.591 358.200, 915.973 361.500 C 914.255 370.683, 911.871 379.858, 909.789 385.297 C 908.387 388.959, 904.257 391, 898.250 391 C 892.605 391, 891 392.217, 891 396.500 C 891 398.205, 891.540 400.140, 892.200 400.800 C 893.076 401.676, 900.906 402, 921.177 402 L 948.954 402 950.667 399.385 C 952.203 397.041, 952.228 396.496, 950.907 394.135 C 949.627 391.846, 948.694 391.461, 943.801 391.203 C 934.538 390.714, 933.714 387.791, 938.069 370.884 C 938.581 368.895, 939 366.227, 939 364.955 C 939 363.683, 939.438 361.260, 939.974 359.571 C 940.509 357.882, 941.896 351.325, 943.057 345 C 944.217 338.675, 945.880 332.375, 946.753 331 C 947.626 329.625, 953.797 322.875, 960.466 316 C 967.135 309.125, 975.548 300.350, 979.162 296.500 C 982.776 292.650, 988.890 286.143, 992.749 282.039 L 999.766 274.579 1006.896 274.176 C 1013.338 273.812, 1014.217 273.504, 1016.013 270.982 C 1018.524 267.456, 1018.521 265.521, 1016 263 C 1014.140 261.140, 1012.667 261, 994.955 261 C 976.067 261, 975.889 261.020, 973.455 263.455 C 970.877 266.033, 970.187 270.380, 972.163 271.601 C 972.802 271.996, 974.712 272.603, 976.407 272.949 C 978.101 273.296, 979.624 274.287, 979.791 275.152 C 980.143 276.981, 946.921 311.573, 943.887 312.536 C 942.797 312.882, 941.248 312.621, 940.446 311.955 C 938.768 310.563, 928.916 296.674, 926.141 291.789 C 925.114 289.980, 922.773 286.103, 920.940 283.174 C 917.010 276.895, 917.601 274.679, 923.336 274.191 C 929.492 273.666, 931.744 268.487, 927.927 263.635 L 925.855 261 899.177 261.015 C 879.679 261.026, 871.827 261.370, 870 262.294 M 299.958 263.550 C 299.024 264.676, 298.922 266.112, 299.586 268.800 L 300.500 272.500 307.187 273.075 C 315.304 273.773, 317.376 275.185, 316.571 279.472 C 316.015 282.435, 311.571 294.580, 308.326 302 C 307.485 303.925, 306.439 306.400, 306.003 307.500 C 305.567 308.600, 304.067 311.975, 302.670 315 C 301.273 318.025, 299.145 323.200, 297.941 326.500 C 296.738 329.800, 295.359 332.927, 294.877 333.450 C 294.394 333.972, 294 335.216, 294 336.214 C 294 337.211, 293.595 338.809, 293.100 339.764 C 292.605 340.719, 290.955 344.650, 289.433 348.500 C 286.621 355.618, 284.585 360.441, 281 368.489 C 279.900 370.958, 279 373.196, 279 373.462 C 279 374.504, 273.536 385.654, 271.753 388.250 C 270.059 390.715, 269.265 391, 264.078 391 C 259.322 391, 257.821 391.437, 255.646 393.452 C 252.810 396.081, 252.262 398.862, 254.200 400.800 C 255.059 401.659, 261.543 402, 277.045 402 C 296.744 402, 298.839 401.836, 300.345 400.171 C 302.306 398.004, 302.501 394.655, 300.750 393.222 C 300.063 392.659, 297.475 391.804, 295 391.322 C 291.339 390.608, 290.437 390.002, 290.161 388.073 C 289.974 386.769, 290.372 384.531, 291.045 383.101 C 291.717 381.670, 292.605 379.600, 293.017 378.500 C 293.429 377.400, 294.897 373.575, 296.279 370 C 297.661 366.425, 300.228 359.675, 301.983 355 C 305.406 345.887, 311.633 329.779, 313.002 326.500 C 313.461 325.400, 315.089 321.189, 316.619 317.142 C 320.523 306.817, 323.329 306.367, 325.798 315.672 C 326.503 318.327, 327.470 321.850, 327.947 323.500 C 328.424 325.150, 329.361 328.975, 330.029 332 C 330.698 335.025, 331.606 338.400, 332.047 339.500 C 332.488 340.600, 333.063 342.625, 333.325 344 C 333.587 345.375, 334.565 349.200, 335.500 352.500 C 336.434 355.800, 338.085 361.875, 339.169 366 C 341.248 373.918, 342.451 378.265, 344.149 384 C 344.720 385.925, 345.417 388.947, 345.698 390.715 C 346.740 397.253, 350.735 397.546, 353.699 391.302 C 354.691 389.211, 358.008 383.225, 361.070 378 C 368.624 365.107, 374.706 354.504, 377.991 348.500 C 379.496 345.750, 382.418 340.575, 384.486 337 C 390.013 327.443, 391.337 325.077, 394.564 319 C 396.171 315.975, 397.737 313.275, 398.044 313 C 398.352 312.725, 399.360 310.874, 400.284 308.888 C 402.463 304.201, 404.691 302.291, 406.209 303.809 C 407.361 304.961, 406.028 318.052, 403.937 326.116 C 403.422 328.105, 403 331.223, 403 333.045 C 403 334.867, 402.576 337.740, 402.057 339.429 C 401.539 341.118, 400.140 349.250, 398.948 357.500 C 395.906 378.549, 394.080 387.223, 392.261 389.250 C 391.218 390.411, 389.216 391, 386.310 391 C 380.701 391, 377 393.352, 377 396.915 C 377 401.923, 377.448 402, 406.677 402 L 433.954 402 435.667 399.385 C 437.203 397.042, 437.228 396.495, 435.908 394.135 C 434.641 391.870, 433.671 391.456, 428.997 391.190 C 421.863 390.783, 420.697 389.745, 421.575 384.579 C 421.957 382.335, 422.677 377.800, 423.176 374.500 C 423.676 371.200, 424.475 366.025, 424.954 363 C 425.433 359.975, 426.310 354.350, 426.903 350.500 C 427.496 346.650, 428.440 340.575, 429 337 C 429.980 330.746, 432.193 316.063, 434.048 303.500 C 434.535 300.200, 435.189 295.475, 435.502 293 C 437.591 276.466, 439.226 274.057, 448.383 274.022 C 453.143 274.004, 454.622 273.589, 456.133 271.847 C 458.250 269.406, 458.591 264.991, 456.800 263.200 C 455.056 261.456, 413.635 261.502, 412.266 263.250 C 411.318 264.462, 408.170 270.086, 401.492 282.500 C 399.716 285.800, 397.235 290.300, 395.978 292.500 C 394.720 294.700, 392.126 299.425, 390.212 303 C 388.298 306.575, 385.443 311.644, 383.866 314.265 C 382.290 316.886, 381 319.217, 381 319.446 C 381 319.674, 377.727 325.630, 373.726 332.681 C 369.725 339.731, 365.654 347.188, 364.679 349.250 C 363.704 351.313, 362.488 353, 361.976 353 C 360.253 353, 358.246 348.545, 356.569 341 C 355.653 336.875, 354.494 331.925, 353.993 330 C 353.493 328.075, 352.559 324.025, 351.918 321 C 351.276 317.975, 350.381 314.375, 349.927 313 C 348.648 309.124, 341.609 281.132, 340.497 275.500 C 339.483 270.365, 337.682 264.555, 336.697 263.250 C 336.007 262.335, 331.135 262, 318.500 262 C 304.134 262, 301.029 262.260, 299.958 263.550 M 216 275.872 C 205.521 278.535, 190.783 294.040, 183.085 310.500 C 176.637 324.286, 174.435 333.249, 173.379 349.992 C 172.232 368.172, 176.169 381.983, 184.343 388.457 C 187.731 391.139, 188.916 391.489, 194.343 391.404 C 204.793 391.242, 213.485 385.714, 223.931 372.587 C 232.389 361.958, 241.087 342.537, 244.915 325.736 C 246.356 319.410, 246.317 295.871, 244.859 292.297 C 241.672 284.479, 240.656 282.862, 236.939 279.680 C 231.721 275.214, 224.067 273.822, 216 275.872 M 653.832 293.298 C 643.112 301.474, 620.487 331.432, 621.212 336.489 C 621.484 338.390, 622.341 338.515, 636.892 338.777 C 654.240 339.089, 655.275 338.740, 656.369 332.209 C 656.711 330.169, 657.404 326.475, 657.908 324 C 658.413 321.525, 659.113 317.700, 659.464 315.500 C 659.816 313.300, 660.497 309.925, 660.979 308 C 663.599 297.525, 664.154 292.891, 662.960 291.452 C 661.088 289.196, 658.533 289.712, 653.832 293.298" stroke="none" fill="black" fill-rule="evenodd"/>
</svg>