<?xml version="1.0" encoding="UTF-8"?>
<svg xmlns="http://www.w3.org/2000/svg" viewBox="0 0 302 92" width="302" height="92">
<path d="M161.25 20.74C162.23 19.19 163.51 13.34 162.83 11.37C162.27 9.73 161.12 10.05 161.03 8.03C164.27 8.03 167.51 8.03 170.75 8.03C170.4 9.1 170.05 10.18 169.7 11.25C170.27 18.14 173.46 24.97 174.89 31.73C175.42 34.24 175.84 39.28 177.75 40.77C180.77 30.77 183.79 20.76 186.8 10.75C186.19 10.08 185.58 9.42 184.97 8.75C186.76 7.01 193.48 6.73 195.25 8.8C194.65 9.62 194.05 10.43 193.45 11.25C194.12 18.14 195.62 24.97 196.81 31.79C197.23 34.18 197.02 38.29 198.75 39.89C200.64 35.94 198.91 27.28 197.92 23.25C199.3 21.53 201.23 20.27 203.41 20.25C206.04 23.73 202.3 29.74 204.75 33.12C207.29 30.44 209.76 28.36 213.75 28.54C215.12 28.61 216.42 29.25 217.75 29.05C218.91 24.62 215.16 21.79 210.85 23.17C209.17 23.71 208.11 25.49 206.25 25.07C206.15 19.71 218.31 18.91 221.61 22.17C225.97 26.48 221.79 34.86 225.75 38.91C227.41 36.44 226.23 25.98 224.8 23.25C225.62 21.89 229.06 19.11 230.66 21.04C231.16 21.64 231.31 22.54 231.75 23.19C235.55 21.78 238.97 18.85 243.15 21.1C244.48 21.81 245.03 23.2 246.25 23.95C248.07 22.77 249.47 21.15 251.58 20.33C262.91 15.9 260.42 33.64 263.25 38.96C264.27 37.84 264.37 27.82 263.82 25.85C263.55 24.92 262.6 24.06 262.12 23.25C263.67 21.42 265.76 19.66 268.25 20.29C270.04 23.32 268.76 34.11 269 38.25C269.12 40.25 270.78 40.69 270.75 42.55C267.75 43.74 258.82 44.17 256.25 42.02C256.41 40.68 257.74 40.09 257.93 38.74C258.38 35.47 256.76 23.77 252.73 23.6C243.52 23.2 247.59 37.73 248.01 42.25C246.22 43.74 242.27 43.61 240.38 42.25C240.68 41.16 241.62 40.32 241.84 39.21C242.53 35.88 242.91 24.32 238.25 23.93C231.31 23.36 231.16 28.04 231.16 33.25C231.16 35.08 230.82 37.29 231.25 39.08C231.54 40.31 232.66 41 232.78 42.25C228.79 44.77 224.59 42.34 220.75 41.1C214.68 43.73 213.2 44.37 206.85 41.75C203.25 43.62 203.32 42.93 199.25 43.26C198.37 47.85 200.88 50.97 202.82 54.75C200.01 56.15 194.68 57.16 192.58 54.25C193.16 53.24 194.18 52.43 194.31 51.2C194.52 49.18 193.58 47.13 193.19 45.2C191.99 39.34 190.9 33.24 190.12 27.32C189.79 24.86 189.86 19.47 188.25 17.7C186.49 18.75 186.37 22.56 185.74 24.53C183.46 31.59 181.2 38.71 179.17 45.85C178.41 48.51 178.06 53.71 175.25 54.81C174.08 51.52 172.92 48.22 171.75 44.93C171.83 47.03 171.76 56.02 172.34 57.41C172.85 58.62 174.78 60.25 175.75 61.04C177.67 59.98 179.02 58.25 181.16 57.42C193.39 52.74 188.84 70.97 192.75 74.87C193.5 70.28 193.78 64.18 191.23 60.25C192.53 58.22 194.56 57.91 196.75 57.15C200.43 58.93 203.56 56.17 207.63 57.21C211.25 58.13 212.42 60.82 214.75 63.18C215.42 59.5 215.98 52.96 214.84 49.34C214.55 48.41 213.69 47.66 213.28 46.75C214.82 45.01 217.06 43.74 219.4 44.25C219.68 49.39 219.97 54.53 220.25 59.66C223.84 58.07 228.87 54.66 232.53 58.21C233.98 59.62 234.02 61.65 235.25 62.99C239.53 58.15 242.75 54.8 250.16 57.18C252.36 57.89 253.83 60.09 255.85 60.75C257.69 58.91 259.05 57.85 261.75 57.94C262.25 58.61 262.75 59.29 263.25 59.96C265.79 59.32 267.97 57.2 270.73 57.08C272.67 56.99 273.96 58.37 275.77 58.45C278.53 58.58 281.4 56.91 283.97 58.75C283.86 59.78 283.02 60.66 283.12 61.72C283.33 64 287.24 71.6 288.75 73.43C289.89 72.79 294.63 63.3 294.56 61.76C294.49 60.34 293.07 60.2 293.25 58.7C295.05 57.77 298.73 57.4 300.36 58.75C299.83 60.39 296.37 64.63 295.23 66.93C292.6 72.27 288.72 84.22 284.64 87.89C282.03 90.24 273.7 89.22 276.75 84.81C278.8 84.6 280.09 87.43 282.41 86.67C284.95 85.84 286.15 82.1 285.99 79.75C285.8 76.97 279.84 65.06 277.84 63.25C277.15 64.75 278.64 72.97 279.32 74.92C279.95 76.74 281.3 77.88 281.48 79.75C278.52 80.63 276.21 80.72 273.25 79.79C273.14 77.94 274.61 77.49 274.75 75.72C274.99 72.6 273.47 61.2 269.75 60.95C261.81 60.43 261.9 71.29 262.99 76.75C263.23 77.91 263.89 78.53 264.06 79.75C261.24 80.86 259.11 80.71 256.25 79.82C256.12 77.88 257.57 77.29 257.75 75.44C255.45 76.49 254.17 78.92 251.63 79.81C242.64 82.98 241.54 77.83 236.25 74.27C236.75 76.13 237.25 77.99 237.75 79.85C234.93 80.72 232.89 80.58 230.08 79.75C230.03 78.08 231 77.04 231.07 75.25C231.2 71.85 230.39 68.59 229.97 65.25C229.72 63.27 229.16 60.24 226.75 60.02C218.98 59.31 218.58 71.69 220.22 76.6C220.55 77.57 221.31 78.24 221.63 79.25C219.24 81.05 214.98 81.24 212.58 79.25C213.14 77.53 214.94 76.64 214.75 74.68C212.47 75.87 211.39 78.84 208.65 79.84C205.16 81.11 201.99 79.59 198.65 80.25C198.03 83.26 198.49 85.99 200.57 88.25C198.52 90.73 194.06 90.55 191.53 88.75C192.89 85.76 193.34 83.79 192.75 80.33C190.54 79.97 188.32 79.61 186.11 79.25C186.2 77.83 187.28 77.1 187.44 75.72C187.85 72.26 186.57 60.89 182.25 60.8C175.4 60.65 175.35 70.66 176.26 75.51C176.53 76.96 177.83 77.83 177.73 79.25C175.61 80.7 172.69 80.5 170.25 79.77C170.11 78.03 171.16 77.83 171.44 76.22C171.84 73.89 171.93 69.89 171.25 67.65C169.31 69.81 169.05 73.89 167.79 76.59C163.62 85.51 154.95 93.87 144.06 90.71C140.34 89.63 137.58 87.82 134.25 86.05C129.93 87.78 126.62 90.21 121.75 90.79C111.15 92.04 99.51 83.35 103.06 71.75C105.59 63.46 118.41 61.23 124.61 66.17C128.54 69.31 129.71 73.93 132.75 77.48C135.78 73.43 132.92 67.58 129.07 65.22C127.64 64.35 125.82 63.54 124.2 63.14C117.76 61.52 97.99 58.56 107.33 47.06C109.05 44.94 111.7 44.73 113.62 43.25C112.33 42.61 111.04 41.97 109.75 41.33C102.39 45.04 101.32 43.94 94.25 41C90.57 42.47 87.96 44.39 83.75 43.5C84.05 47.44 82.83 56.78 84.64 59.75C86.12 58.87 87.72 57.75 89.36 57.19C100.28 53.44 99.25 68.24 100.2 74.7C100.47 76.6 101.77 77.92 101.89 79.75C99.08 80.78 97.12 80.49 94.25 79.83C94.09 78.19 94.92 78.04 95.16 76.5C95.85 72.18 94.95 63.56 91.95 60.25C83.18 58.75 82.75 70.24 84.21 76.14C84.52 77.41 85.66 78.01 85.75 79.36C83.31 80.89 80.96 80.54 78.22 80.09C75.35 79.63 71.52 81.08 69.2 78.53C65.73 74.72 70.56 62.64 66.75 60.45C65.51 62.11 65.51 73.3 66.23 75.6C66.66 77.02 67.79 77.84 68.09 79.25C65.16 81.78 63.3 79.51 60.75 78.1C54.88 80.35 49 83.83 46.76 74.75C44.45 75.91 43.29 78.74 40.56 79.77C29.93 83.79 27.85 75.64 23.25 69.87C22.18 72.12 22.22 84.57 23.12 87.2C23.58 88.56 24.71 88.73 24.96 90.25C23.13 91.72 15.96 91.79 14.15 90.25C14.49 88.61 16.39 87.93 16.74 86.06C17.2 83.66 16.52 80.68 16.43 78.25C16.33 75.15 16.99 71.25 15.93 68.3C13.79 62.36 5.53 52.63 1.37 47.75C3.71 45.43 9.49 45.23 12.11 47.25C11.81 47.95 11.07 48.91 11.16 49.7C11.43 52.09 19.17 62.33 21.25 63.61C23.5 59.99 25.75 56.37 28 52.75C26.62 51.54 24.58 50.77 22.92 49.79C17.37 46.5 13.5 40.91 12.2 34.66C9.06 19.46 21.5 4.22 36.73 3.07C45.15 2.44 50.95 5.24 57.75 9.56C58.75 9.24 59.75 8.92 60.75 8.6C62.95 10.47 65.14 14.84 64.25 17.5C61.37 16.74 59.34 12.87 56.6 11.2C49.18 6.71 39.63 4.67 31.38 8.19C17.45 14.13 12.99 34.08 24.05 44.69C25.89 46.46 27.81 48.31 30.25 49.08C35.83 39.64 41.4 30.19 46.98 20.75C46.28 19.92 45.58 19.08 44.88 18.25C46.33 16.09 51.74 16.14 53.56 17.75C52.73 19.13 51.21 19.61 50.27 20.95C45.69 27.48 41.92 34.77 37.86 41.63C36.57 43.82 33.06 47.79 33.25 50.26C40.08 53.79 56.04 49.65 58.92 41.68C59.77 39.32 60.1 33.67 59.52 31.27C59.12 29.59 57.47 29.28 57.25 27.67C59.82 25.58 64.82 27.18 67.88 26.75C67.16 23.09 67.12 21.83 71.75 20.89C72.42 21.51 73.09 22.13 73.75 22.75C80.92 17.61 83.93 11.76 92.88 7.18C109.51 -1.33 132.32 -1.61 148.17 9.07C153.16 12.43 156.66 17.13 161.25 20.74ZM153.21 20.25C152.11 16.07 144.54 12.49 140.92 10.78C126.4 3.93 106.25 4.1 91.99 11.71C88.54 13.55 78.83 18.89 78.13 22.75C83.76 19.86 94.99 20.04 95.12 28.75C90.1 30.75 85.08 32.75 80.07 34.75C80.31 40.66 88.72 41.95 92.75 39.13C93.18 37.6 92.66 35.97 93.26 34.46C96.09 27.31 101.89 30.02 106.91 29.25C107.44 27.75 107.24 26.32 106.27 25C102.91 20.46 98.93 24.97 95.25 25.53C94.82 20.09 107.31 19.22 110.58 22.17C115.25 26.39 111.16 34.93 114.75 39.57C115.35 38.75 115.66 26.25 115.05 24.84C114.64 23.89 113.8 23.39 113.02 22.75C115.1 19.9 117.17 17.06 119.25 14.21C121.1 16.33 120.04 18.34 120.94 20.75C123.21 21.1 125.48 21.45 127.75 21.81C132.77 18.91 137.65 21.74 141.75 24.41C142.64 21.83 145.21 20.85 147.75 21.08C148.08 22 148.42 22.92 148.75 23.83C150.24 22.64 151.72 21.44 153.21 20.25ZM268.91 12.75C268.72 15.77 264.98 17.49 263 14.75C263.56 11.88 266.69 10.61 268.91 12.75ZM204.04 12.19C204.04 13.21 204.04 14.23 204.04 15.25C202.08 16.32 199.79 17.18 198.59 14.75C199.41 11.94 201.4 11.72 204.04 12.19ZM164.75 19.05C162 22.28 166.56 31.26 168.75 34.36C169.24 32.34 166.21 20.62 164.75 19.05ZM89.25 28C88.76 19.17 74.65 23.57 78.68 31.75C81.28 32.19 87.69 30.19 89.25 28ZM136.81 28.75C138.49 19.85 122.56 21.84 126.49 31.75C129.69 32.21 133.89 30.07 136.81 28.75ZM123.5 23.75C118.52 24.75 120.12 31.97 120.46 35.75C120.58 37.11 120.22 39.29 121.55 40.21C122.48 40.86 122.84 40.39 123.75 40.11C123.78 38.2 121.54 34.92 121.73 30.87C121.84 28.69 124.02 25.43 123.5 23.75ZM159.75 27.53C158.88 27.06 158.21 27.26 157.34 26.94C156.5 26.62 156.08 25.47 155.15 25.16C148.25 22.84 147.32 33.79 148.25 38.06C148.62 39.76 149.75 41.08 150.03 42.75C147.3 44.19 143.15 44.43 141.25 41.65C136.89 43.3 133.98 44.45 129.31 42.87C128.13 42.46 127.28 41.88 126 41.75C122.08 44.16 117.55 41.6 115.9 43.25C116.9 43.81 122.81 44.88 124.19 44.78C125.71 44.66 126.57 44.01 128.14 44.25C129.59 46.14 132.5 48.87 131.49 51.25C129.71 51.45 128.62 50.1 127.14 49.14C123.44 46.76 112.15 42.89 111.15 50.28C110.89 52.22 112.5 54.28 114.29 54.91C118.93 56.55 124.04 56.4 128.65 58.17C131.88 59.4 133.92 61.8 136.75 63.51C136.75 61.58 135.03 60.73 134.14 59.25C136.35 57.38 140.21 57.43 142.75 58.61C142.99 59.96 142 60.35 142.1 61.74C142.27 64.13 146.08 71.68 147.75 73.42C149.15 72.3 153.4 63.59 153.33 61.74C153.28 60.3 152 60.13 152.25 58.6C154.13 57.76 158.39 57.2 160.25 58.06C160.67 58.79 161.08 59.52 161.5 60.25C163.58 59.11 165.67 57.97 167.75 56.83C168.46 51.73 166.13 36.47 162.25 33.11C161.56 35.72 158.66 49.79 159.2 51.62C159.53 52.75 160.87 53.66 161.35 54.75C158.83 56.3 155.73 56.13 153.18 54.75C153.76 53.5 155.16 52.84 155.78 51.6C157.33 48.44 160.51 30.67 159.75 27.53ZM73.75 28.43C71.66 32.48 72.63 39.14 74.84 42.75C71.08 44.72 67.29 42.82 63.37 43.66C60.54 44.28 58.41 47.26 56.21 48.99C53.58 51.06 50.23 52.71 47.08 53.78C43.8 54.88 39.65 55.4 36.23 54.76C34.37 54.41 32.64 53.54 30.75 54.04C30.12 55.11 29.5 56.18 28.87 57.25C30.54 57.35 32.39 56.54 34.25 56.53C40.23 56.52 43.3 59.98 46.56 63.75C46.56 62.58 46.56 61.42 46.56 60.25C47.96 59.27 49.35 58.29 50.75 57.31C53.64 60.57 51.22 71.33 52.25 76.01C54.33 77.98 59.45 78.32 60.85 75.15C62.58 71.25 61.69 63.9 59.94 60.25C60.89 58.5 62.93 57.71 64.75 57.08C65.42 57.44 66.08 57.79 66.75 58.14C69.72 56.67 69.46 52.21 72.25 51.15C73.94 52.81 72.85 55.21 73.55 57.25C75.09 58.4 77.09 58.18 78.9 57.75C79.47 52.77 79.09 51.05 77.48 46.75C79.19 45.75 80.91 44.75 82.62 43.75C81.48 42.84 79.98 42.34 78.65 41.57C73.63 38.66 73.89 33.46 73.75 28.43ZM67.75 29.11C64.19 30.37 63.44 40 67.25 41.01C68.52 39.55 68.73 30.68 67.75 29.11ZM142.75 29.35C137.75 31.23 132.75 33.12 127.75 35C128.73 41.14 139.19 42.63 142.78 38.02C144.05 36.39 143.31 31.22 142.75 29.35ZM108.76 39.25C109.96 32.2 101.89 27.17 98.28 33.99C94.69 40.77 104.23 43.12 108.76 39.25ZM212.35 31.16C204.34 33.7 210.93 45.34 218.65 39.91C223.65 36.4 217.02 29.68 212.35 31.16ZM31.84 59.15C24.1 61.48 30.93 81.48 39.57 77.76C47.66 74.28 40.92 56.42 31.84 59.15ZM242.89 59.2C235.24 61.78 242.14 81.52 250.61 77.79C258.76 74.21 251.94 56.14 242.89 59.2ZM202.44 59.72C195.4 61.7 195.37 80.43 205.71 77.86C213.73 75.86 211.47 57.18 202.44 59.72ZM78.97 60.3C72.25 60.18 73.01 64.93 73.16 70.25C73.24 72.89 72.6 75.52 74.75 77.4C76.16 76.9 77.56 76.4 78.97 75.9C78.97 70.7 78.97 65.5 78.97 60.3ZM167.4 61.25C165.55 60.96 162.4 61.77 161.33 63.57C160.5 64.96 160.6 74.96 161.1 76.71C161.36 77.6 162.07 78.03 162.75 78.53C165.5 76.1 168.61 64.59 167.4 61.25ZM155.75 64.47C151.86 72.06 147.96 79.66 144.07 87.25C148.29 90.83 159.65 84.92 161.43 80.25C159.05 79.87 156.29 80.89 154.25 79.2C154.23 77.47 155.57 76.87 155.92 75.23C156.57 72.15 156.33 67.52 155.75 64.47ZM130.81 82.25C129.94 77.27 126.46 70.08 121.8 67.45C117.13 64.81 109.7 66.13 107.2 71.39C100.44 85.6 123.85 92.28 130.81 82.25ZM140.25 70.51C139.94 72.18 140.15 73.96 139.78 75.63C139.18 78.35 136.82 81.05 136.75 83.75C137.75 84.48 138.75 85.22 139.75 85.96C147.66 84.76 144.52 74.01 140.25 70.51Z" fill="#39b6ff" fill-rule="evenodd" stroke="#39b6ff" stroke-width="0.25" stroke-linejoin="round"/>
</svg>