<?xml version="1.0" encoding="UTF-8"?>
<svg xmlns="http://www.w3.org/2000/svg" viewBox="0 0 1095 1095" width="1095" height="1095">
<path d="M0.25 0.25C365.08 0.25 729.92 0.25 1094.75 0.25C1094.75 365.08 1094.75 729.92 1094.75 1094.75C729.92 1094.75 365.08 1094.75 0.25 1094.75C0.25 729.92 0.25 365.08 0.25 0.25ZM557.5 553.12C555.26 543.98 556.85 526.6 556.85 516.5C556.85 489.57 557.89 462.41 556.85 435.5C556.18 418.28 539.87 406.27 523.19 412.64C508.17 418.38 508.34 431.92 508.34 445.5C508.34 452.5 508.34 459.5 508.34 466.5C508.34 513.5 508.34 560.5 508.34 607.5C508.34 614.83 508.34 622.17 508.34 629.5C508.34 640.66 507.08 652.13 516.25 660.25C528.56 671.15 550.46 666.21 555.5 650.04C558.66 639.91 556.85 617.01 556.85 605.5C556.85 599.18 557.1 592.81 556.85 586.5C556.75 584.01 556.24 580.95 553.31 580.23C544.61 578.08 547.27 595.73 547.27 600.5C547.27 610.5 547.27 620.5 547.27 630.5C547.27 635.57 548.06 641.4 546.75 646.33C544.97 653.06 538.18 657.07 531.5 656.79C513.07 656.02 517.62 630.79 517.62 618.5C517.62 615.17 517.62 611.83 517.62 608.5C517.62 562.17 517.62 515.83 517.62 469.5C517.62 459.83 517.62 450.17 517.62 440.5C517.62 433.4 517.93 426.25 524.78 422.3C532.68 417.75 544.24 421.52 546.72 430.7C548.2 436.21 547.27 442.83 547.27 448.5C547.27 474.83 547.27 501.17 547.27 527.5C547.27 534.83 547.27 542.17 547.27 549.5C547.27 552.56 546.51 556.77 547.78 559.63C549.78 564.14 564.84 562.43 569.5 562.43C592.14 562.43 614.9 561.77 637.53 562.5C639.52 569.22 638.42 577.42 638.42 584.5C638.42 598.17 638.42 611.83 638.42 625.5C638.42 633.01 637.55 641.08 639.21 648.45C642.55 663.29 660.19 669.95 673.35 663.83C687.1 657.44 686.92 643.6 686.92 630.5C686.92 623.5 686.92 616.5 686.92 609.5C686.92 561.5 686.92 513.5 686.92 465.5C686.92 458.83 686.92 452.17 686.92 445.5C686.92 433.02 686.83 420.81 674.59 413.95C661.88 406.83 643.27 413.09 639.41 427.79C637.66 434.43 638.42 441.7 638.42 448.5C638.42 462.83 638.42 477.17 638.42 491.5C638.42 498.95 639.44 507.32 637.69 514.5C623.44 515.54 608.8 514.66 594.5 514.66C588.68 514.66 580.68 513.23 575.5 515.96C573.62 519.23 574.19 523.15 578.53 523.88C583.57 524.72 589.39 523.94 594.5 523.94C606.17 523.94 617.83 523.94 629.5 523.94C633.36 523.94 644.23 525.21 646.74 522.22C649.43 519.01 648.02 505.03 648.02 500.5C648.02 480.83 648.02 461.17 648.02 441.5C648.02 437.84 647.47 433.69 648.62 430.17C651.35 421.81 661.01 418.2 668.85 421.62C677.14 425.24 677.74 433.59 677.74 441.5C677.74 451.83 677.74 462.17 677.74 472.5C677.74 516.5 677.74 560.5 677.74 604.5C677.74 614.5 677.74 624.5 677.74 634.5C677.74 640.72 678.16 647.24 673.61 652.11C665.66 660.6 649.37 656.79 648.09 644.5C647.37 637.65 648.02 630.39 648.02 623.5C648.02 609.17 648.02 594.83 648.02 580.5C648.02 575.7 649.17 558.79 647.06 555.48C644.56 551.56 629.2 553.18 624.5 553.18C602.18 553.18 579.81 553.59 557.5 553.12ZM730.5 515.06C727.71 519.17 728.45 523.67 728.45 528.5C728.45 536.83 728.45 545.17 728.45 553.5C728.45 573.83 728.45 594.17 728.45 614.5C728.45 624.34 727.28 635 728.61 644.74C730.55 659.03 744.09 668.55 758.25 665.65C782.17 660.75 777.02 631.45 777.02 613.5C777.02 564.83 777.02 516.17 777.02 467.5C777.02 460.5 777.02 453.5 777.02 446.5C777.02 434.05 777.41 422.18 765.9 414.59C752.93 406.04 733.92 413.18 729.51 427.97C726.66 437.55 728.45 460.51 728.45 471.5C728.45 476.39 726.91 491.59 729.4 495.14C730.46 496.65 731.86 496.81 733.5 497.3C739.96 494.61 737.81 486.46 737.81 480.5C737.81 470.17 737.81 459.83 737.81 449.5C737.81 443.93 737.28 438.05 738.21 432.54C739.88 422.67 751.6 417.15 760.3 422.19C767.47 426.34 767.78 434.06 767.78 441.5C767.78 450.83 767.78 460.17 767.78 469.5C767.78 515.5 767.78 561.5 767.78 607.5C767.78 611.17 767.78 614.83 767.78 618.5C767.78 630.28 772 654.38 755.32 656.64C735.04 659.38 737.81 636.29 737.81 623.5C737.81 597.83 737.81 572.17 737.81 546.5C737.81 539.06 739.53 520.79 736.11 515.06C734.24 515.06 732.37 515.06 730.5 515.06ZM885.47 562.5C879.92 571.83 892.05 570.5 897.5 570.5C911.28 570.5 924.56 569.41 937.33 563.84C969.16 549.96 988.21 517.02 984.87 482.5C981.66 449.35 955.75 420.57 923.35 413.31C908.19 409.91 891.93 411.41 876.5 411.41C865.98 411.41 845.93 409.77 836.53 412.08C813.36 417.75 818.62 446.68 818.62 464.5C818.62 512.5 818.62 560.5 818.62 608.5C818.62 615.5 818.62 622.5 818.62 629.5C818.62 641.06 817.75 652.84 827.74 660.75C839.67 670.2 858.97 665.51 864.71 651.25C867.55 644.2 866.44 635.95 866.44 628.5C866.44 614.17 866.44 599.83 866.44 585.5C866.44 579.34 868 567.53 864.97 562.5C853.8 559.22 857.37 576.7 857.37 583.5C857.37 597.17 857.37 610.83 857.37 624.5C857.37 631.21 858.41 638.9 857.05 645.48C855.17 654.57 844.31 659.21 836.19 655.36C832.7 653.72 829.82 650.65 828.52 647.01C825.83 639.49 827.54 618.46 827.54 609.5C827.54 563.17 827.54 516.83 827.54 470.5C827.54 461.17 827.54 451.83 827.54 442.5C827.54 433.35 828.15 423.87 838.5 420.91C846.23 418.7 861.01 420.31 869.5 420.31C893.26 420.31 918.6 417.18 940.06 429.43C980.01 452.23 987.91 503.93 957.91 538.38C947.56 550.25 931.11 558.91 915.5 560.82C906.95 561.87 892.57 560.17 885.47 562.5ZM403.05 444.09C399.63 444.09 396.22 444.09 392.8 444.09C392.8 464.37 392.8 484.64 392.8 504.91C396.22 504.91 399.63 504.91 403.05 504.91C403.05 484.64 403.05 464.37 403.05 444.09ZM440.1 444.09C436.64 444.09 433.18 444.09 429.72 444.09C429.72 464.37 429.72 484.64 429.72 504.91C433.08 504.91 436.44 504.91 439.8 504.91C440.4 497.82 439.49 490.6 440.3 483.53C440.7 480.06 442.43 476.58 446.5 476.84C450.07 477.07 451.01 480.56 451.27 483.5C451.9 490.61 450.86 497.82 451.61 504.92C454.89 504.92 458.18 504.92 461.46 504.92C462.02 500.16 461.76 495.3 461.76 490.5C461.76 480.11 462.24 466.9 447.63 468.39C444.95 468.67 442.5 470.16 440.1 471.19C440.1 462.16 440.1 453.13 440.1 444.09ZM864.5 477.46C861.52 476.81 858.79 476.67 857.65 480.21C856.58 483.51 857.37 488.06 857.37 491.5C857.37 499.83 857.37 508.17 857.37 516.5C857.37 520.16 856.22 526 858.31 529.21C859.92 531.69 862.91 531.32 865.5 531.32C872.17 531.32 878.83 531.32 885.5 531.32C894.84 531.32 904.98 532.42 914.18 530.55C930.67 527.21 943.65 513.12 945.91 496.5C948.49 477.57 936.6 458.09 918.27 452.3C909.64 449.57 900.43 450.29 891.5 450.29C883.17 450.29 874.83 450.29 866.5 450.29C863.13 450.29 858.58 449.84 857.59 454.07C856.87 457.15 860.01 458.9 862.5 459.18C870.29 460.04 878.66 459.2 886.5 459.2C907.74 459.2 928.57 457.72 936.05 482.51C940.75 498.09 931.47 515.33 916.28 520.7C907.11 523.95 896.08 522.43 886.5 522.43C880.04 522.43 872.63 523.41 866.54 521.5C866.01 510.88 866.44 500.14 866.44 489.5C866.44 485.54 867.53 480.38 864.5 477.46ZM267.96 450.75C267.96 468.83 267.96 486.92 267.96 505C271.6 505 275.24 505 278.88 505C278.88 496.96 278.88 488.92 278.88 480.87C285.24 480.87 291.61 480.87 297.98 480.87C297.98 488.92 297.98 496.96 297.98 505C301.62 505 305.26 505 308.91 505C308.91 486.92 308.91 468.83 308.91 450.75C305.27 450.75 301.64 450.75 298 450.75C298 457.79 298 464.83 298 471.87C291.61 471.87 285.23 471.87 278.85 471.87C278.85 464.83 278.85 457.79 278.85 450.75C275.22 450.75 271.59 450.75 267.96 450.75ZM411.5 457.8C410.85 463.04 412.94 467.67 407.85 470.5C407.84 474.82 407.23 477.32 411.19 479.5C411.19 487.98 411.19 496.46 411.19 504.93C414.68 504.93 418.16 504.93 421.65 504.93C421.65 496.09 421.65 487.25 421.65 478.41C423.68 478.41 425.71 478.41 427.75 478.41C427.75 475.46 427.75 472.5 427.75 469.55C425.73 469.55 423.72 469.55 421.71 469.55C421.71 465.63 421.71 461.71 421.71 457.8C418.31 457.8 414.9 457.8 411.5 457.8ZM347.64 489.12C347.95 482.58 346.58 475.63 341.05 471.44C332.1 464.65 318.46 469.02 314.78 479.37C311.91 487.43 313.46 497.66 320.51 503.01C329.23 509.63 343.85 506.14 347.16 495.5C344.27 494.9 341.39 494.3 338.5 493.69C331.81 500.08 324.93 500.18 325.1 489.12C332.61 489.12 340.13 489.12 347.64 489.12ZM374.5 471.29C371.99 469.8 369.47 468.43 366.49 468.33C345.86 467.61 343.66 503.3 363.5 506.06C367.63 506.64 371.19 505.65 374.5 503.23C377.9 505.76 381.7 505.14 385.84 504.8C385.84 493.13 385.84 481.45 385.84 469.78C381.7 469.45 378.04 468.9 374.5 471.29ZM337.61 481.5C333.97 483.12 328.82 483.02 325.21 481.5C327.77 474.49 335.02 474.39 337.61 481.5ZM365.74 478.25C376.98 474.46 380.82 494.27 370.3 496.7C359.85 499.11 356.18 481.47 365.74 478.25ZM184.37 524.5C166.44 519.82 165.8 535.58 165.86 548.5C164.74 549.5 163.63 550.5 162.52 551.5C162.52 553.5 162.52 555.5 162.52 557.5C163.33 558.28 165.11 558.84 165.63 559.77C166.61 561.55 165.84 565.5 165.84 567.5C165.84 573.53 165.33 579.81 166.46 585.71C169.84 585.71 173.23 585.71 176.61 585.71C176.61 576.77 176.61 567.82 176.61 558.88C179.22 558.88 181.83 558.88 184.45 558.88C184.45 555.89 184.45 552.9 184.45 549.91C181.98 549.91 179.51 549.91 177.04 549.91C176.47 544.94 175.21 537.32 178.5 533.22C180.46 533.22 182.41 533.22 184.37 533.22C184.37 530.31 184.37 527.41 184.37 524.5ZM376.75 529.45C369.48 530.51 370.81 542.24 378.19 541.51C386.31 540.71 384.87 528.26 376.75 529.45ZM109.03 531.04C109.03 549.26 109.03 567.48 109.03 585.71C112.63 585.71 116.24 585.71 119.85 585.71C119.85 567.48 119.85 549.26 119.85 531.04C116.24 531.04 112.63 531.04 109.03 531.04ZM363.84 538.13C360.44 538.13 357.03 538.13 353.63 538.13C353.63 541.71 353.63 545.3 353.63 548.88C348.72 551.52 348.22 557.24 353.63 559.65C353.63 568.33 353.63 577 353.63 585.68C357.03 585.68 360.43 585.68 363.83 585.68C363.83 576.75 363.83 567.82 363.83 558.89C365.94 558.89 368.04 558.89 370.15 558.89C370.15 555.9 370.15 552.9 370.15 549.91C368.04 549.91 365.94 549.91 363.84 549.91C363.84 545.98 363.84 542.06 363.84 538.13ZM158.5 585.66C159.26 577.47 160.3 563.57 157.57 555.86C154.75 547.88 144.73 547.47 138.58 551.5C137.42 551.15 136.71 550.27 135.47 549.95C132.92 549.29 129.44 549.87 126.81 549.86C126.81 561.81 126.81 573.77 126.81 585.72C130.1 585.72 133.39 585.72 136.68 585.72C138.09 578.5 136.55 571.03 137.42 563.73C137.81 560.5 139.76 557.07 143.46 557.29C147.34 557.52 148.18 561.3 148.4 564.5C148.86 571.35 147.15 579.08 149.07 585.66C152.21 585.66 155.36 585.66 158.5 585.66ZM199.6 549.31C175.44 553.66 183.16 593.45 209.47 586.07C222.66 582.37 226.73 564.71 217.85 554.68C213.35 549.59 206.05 548.15 199.6 549.31ZM249.43 549.5C245.04 548.62 241.99 549.16 238.5 551.98C235.17 549.11 231.21 549.84 226.87 550.02C226.87 561.92 226.87 573.82 226.87 585.72C230.18 585.72 233.49 585.72 236.8 585.72C238.1 579.14 234.68 561.54 242.21 558.65C244.39 557.81 246.83 558.53 249.03 558.5C249.91 555.42 250.51 552.52 249.43 549.5ZM283.5 553.57C277.06 549.83 272.8 546.04 265.5 551.77C262.12 549.09 258.19 549.79 254.06 550.27C254.06 562.08 254.06 573.88 254.06 585.68C257.29 585.68 260.51 585.68 263.73 585.68C265.33 578.25 261.38 561.42 268.5 557.32C270.25 557.51 271.37 557.44 272.57 558.94C276.08 563.3 273.57 579.47 274.5 585.64C277.83 585.64 281.17 585.64 284.5 585.64C284.97 579.43 282.79 563.54 286.49 558.98C287.65 557.56 288.85 557.55 290.5 557.29C297.87 561.4 292.67 578.26 295.06 585.69C298.2 585.69 301.35 585.69 304.5 585.69C305.2 578.48 306.2 561.41 303.45 555.04C299.71 546.39 289.13 548.05 283.5 553.57ZM334.5 551.95C331.58 550.45 328.92 548.91 325.5 548.87C303.89 548.6 303.96 586.9 325.5 586.87C328.85 586.87 331.64 585.32 334.5 583.78C337.36 586.84 341.68 585.88 345.62 585.5C345.62 573.83 345.62 562.17 345.62 550.5C341.85 549.74 337.19 548.71 334.5 551.95ZM401.8 549.41C378.15 554.6 386.44 593.4 412.46 586.01C434.54 579.74 426.48 543.99 401.8 549.41ZM461.5 585.66C461.92 580.62 461.76 575.55 461.76 570.5C461.76 560.16 461.89 547.39 447.5 549.02C444.85 549.32 442.81 550.71 440.5 551.8C438.04 548.73 433.28 549.7 429.74 550.5C429.74 562.23 429.74 573.97 429.74 585.7C432.99 585.7 436.25 585.7 439.5 585.7C440.83 578.45 439.35 570.94 440.38 563.61C440.84 560.31 442.68 557.06 446.46 557.31C450.3 557.56 451.09 561.31 451.3 564.5C451.75 571.37 450.15 579.03 451.96 585.66C455.14 585.66 458.32 585.66 461.5 585.66ZM382.98 550C379.53 550 376.07 550 372.61 550C372.61 561.9 372.61 573.8 372.61 585.7C376.07 585.7 379.53 585.7 382.98 585.7C382.98 573.8 382.98 561.9 382.98 550ZM202.62 558.32C213.64 556.82 215.24 576.41 204.5 577.32C193.92 578.21 192.62 559.69 202.62 558.32ZM326.65 558.32C337.79 556.63 339.38 576.69 328.5 577.36C318.02 578.01 316.57 559.84 326.65 558.32ZM404.81 558.43C416.27 555.79 418.52 576.19 406.93 577.46C396.88 578.55 395.48 560.58 404.81 558.43ZM367.76 610.3C360.38 612.71 364.75 624.06 372.25 621.66C379.59 619.32 375.3 607.85 367.76 610.3ZM260.73 611.82C260.73 629.88 260.73 647.94 260.73 666.01C264.33 666.01 267.93 666.01 271.53 666.01C271.53 659.51 271.53 653 271.53 646.5C277.16 645.62 283.39 646.31 288.32 642.83C296.69 636.91 296.32 620.21 287.83 614.65C280.55 609.87 268.99 611.39 260.73 611.82ZM450.1 618.86C450.1 622.4 450.1 625.95 450.1 629.5C445.4 633.3 444.87 636.64 450.06 640.5C450.06 649.03 450.06 657.55 450.06 666.08C453.58 666.08 457.11 666.08 460.64 666.08C460.64 657.14 460.64 648.19 460.64 639.25C462.66 639.25 464.68 639.25 466.71 639.25C466.71 636.44 466.71 633.63 466.71 630.82C464.68 630.82 462.65 630.82 460.63 630.82C460.63 626.83 460.63 622.84 460.63 618.86C457.12 618.86 453.61 618.86 450.1 618.86ZM271.56 621.48C277.96 619.99 283.31 622.19 282.99 629.5C282.91 631.36 282.57 633.31 281.2 634.69C278.71 637.18 274.7 636.81 271.56 636.5C271.56 631.49 271.56 626.48 271.56 621.48ZM321.23 630.56C317.07 628.64 313.51 630 309.78 632.5C306.8 629.85 302.22 630.64 298.52 631.5C298.52 643 298.52 654.5 298.52 665.99C302 665.99 305.49 665.99 308.98 665.99C308.9 660.2 306.83 642.29 312.93 639.48C315.49 638.29 318.53 638.93 321.23 639.17C321.23 636.3 321.23 633.43 321.23 630.56ZM413.94 650.17C414.3 643.97 413.32 637.44 408.33 633.12C400.07 625.99 385.11 629.47 381.42 639.81C378.68 647.51 379.35 657.94 386.08 663.43C394.49 670.29 410.77 668.01 413.58 656.5C410.55 655.98 407.53 655.46 404.5 654.94C398.25 661.8 391.24 659.93 391.5 650.17C398.98 650.17 406.46 650.17 413.94 650.17ZM442.68 631.5C439.01 630.01 435.48 629.12 431.5 629.76C411.6 632.96 411.01 664.6 431.5 667.19C435.47 667.69 438.96 666.74 442.67 665.5C442.67 662.44 442.67 659.38 442.67 656.32C438.46 657.61 434.15 659.93 430.03 656.5C424.64 652.01 425.87 640.69 433.07 638.58C436.69 637.52 439.49 639.63 442.68 640.59C442.68 637.56 442.68 634.53 442.68 631.5ZM335.6 630.18C311.94 635.9 322.42 675.94 348.48 666.05C360.17 661.61 363.51 645.24 355.65 635.82C350.85 630.06 342.67 628.47 335.6 630.18ZM375.26 630.98C371.76 630.98 368.26 630.98 364.76 630.98C364.76 648.96 364.76 666.95 364.76 684.93C368.26 684.93 371.76 684.93 375.26 684.93C375.26 666.95 375.26 648.96 375.26 630.98ZM403.92 643.75C399.88 643.75 395.85 643.75 391.81 643.75C393.27 634.57 402.53 634.62 403.92 643.75ZM338.67 639.21C350.3 635.5 353.27 656.35 342.47 657.93C332.24 659.44 329.38 642.17 338.67 639.21Z" fill="#ffffff" fill-rule="evenodd" stroke="#ffffff" stroke-width="0.25" stroke-linejoin="round"/>
<path d="M557.5 553.12C579.81 553.59 602.18 553.18 624.5 553.18C629.2 553.18 644.56 551.56 647.06 555.48C649.17 558.79 648.02 575.7 648.02 580.5C648.02 594.83 648.02 609.17 648.02 623.5C648.02 630.39 647.37 637.65 648.09 644.5C649.37 656.79 665.66 660.6 673.61 652.11C678.16 647.24 677.74 640.72 677.74 634.5C677.74 624.5 677.74 614.5 677.74 604.5C677.74 560.5 677.74 516.5 677.74 472.5C677.74 462.17 677.74 451.83 677.74 441.5C677.74 433.59 677.14 425.24 668.85 421.62C661.01 418.2 651.35 421.81 648.62 430.17C647.47 433.69 648.02 437.84 648.02 441.5C648.02 461.17 648.02 480.83 648.02 500.5C648.02 505.03 649.43 519.01 646.74 522.22C644.23 525.21 633.36 523.94 629.5 523.94C617.83 523.94 606.17 523.94 594.5 523.94C589.39 523.94 583.57 524.72 578.53 523.88C574.19 523.15 573.62 519.23 575.5 515.96C580.68 513.23 588.68 514.66 594.5 514.66C608.8 514.66 623.44 515.54 637.69 514.5C639.44 507.32 638.42 498.95 638.42 491.5C638.42 477.17 638.42 462.83 638.42 448.5C638.42 441.7 637.66 434.43 639.41 427.79C643.27 413.09 661.88 406.83 674.59 413.95C686.83 420.81 686.92 433.02 686.92 445.5C686.92 452.17 686.92 458.83 686.92 465.5C686.92 513.5 686.92 561.5 686.92 609.5C686.92 616.5 686.92 623.5 686.92 630.5C686.92 643.6 687.1 657.44 673.35 663.83C660.19 669.95 642.55 663.29 639.21 648.45C637.55 641.08 638.42 633.01 638.42 625.5C638.42 611.83 638.42 598.17 638.42 584.5C638.42 577.42 639.52 569.22 637.53 562.5C614.9 561.77 592.14 562.43 569.5 562.43C564.84 562.43 549.78 564.14 547.78 559.63C546.51 556.77 547.27 552.56 547.27 549.5C547.27 542.17 547.27 534.83 547.27 527.5C547.27 501.17 547.27 474.83 547.27 448.5C547.27 442.83 548.2 436.21 546.72 430.7C544.24 421.52 532.68 417.75 524.78 422.3C517.93 426.25 517.62 433.4 517.62 440.5C517.62 450.17 517.62 459.83 517.62 469.5C517.62 515.83 517.62 562.17 517.62 608.5C517.62 611.83 517.62 615.17 517.62 618.5C517.62 630.79 513.07 656.02 531.5 656.79C538.18 657.07 544.97 653.06 546.75 646.33C548.06 641.4 547.27 635.57 547.27 630.5C547.27 620.5 547.27 610.5 547.27 600.5C547.27 595.73 544.61 578.08 553.31 580.23C556.24 580.95 556.75 584.01 556.85 586.5C557.1 592.81 556.85 599.18 556.85 605.5C556.85 617.01 558.66 639.91 555.5 650.04C550.46 666.21 528.56 671.15 516.25 660.25C507.08 652.13 508.34 640.66 508.34 629.5C508.34 622.17 508.34 614.83 508.34 607.5C508.34 560.5 508.34 513.5 508.34 466.5C508.34 459.5 508.34 452.5 508.34 445.5C508.34 431.92 508.17 418.38 523.19 412.64C539.87 406.27 556.18 418.28 556.85 435.5C557.89 462.41 556.85 489.57 556.85 516.5C556.85 526.6 555.26 543.98 557.5 553.12ZM730.5 515.06C732.37 515.06 734.24 515.06 736.11 515.06C739.53 520.79 737.81 539.06 737.81 546.5C737.81 572.17 737.81 597.83 737.81 623.5C737.81 636.29 735.04 659.38 755.32 656.64C772 654.38 767.78 630.28 767.78 618.5C767.78 614.83 767.78 611.17 767.78 607.5C767.78 561.5 767.78 515.5 767.78 469.5C767.78 460.17 767.78 450.83 767.78 441.5C767.78 434.06 767.47 426.34 760.3 422.19C751.6 417.15 739.88 422.67 738.21 432.54C737.28 438.05 737.81 443.93 737.81 449.5C737.81 459.83 737.81 470.17 737.81 480.5C737.81 486.46 739.96 494.61 733.5 497.3C731.86 496.81 730.46 496.65 729.4 495.14C726.91 491.59 728.45 476.39 728.45 471.5C728.45 460.51 726.66 437.55 729.51 427.97C733.92 413.18 752.93 406.04 765.9 414.59C777.41 422.18 777.02 434.05 777.02 446.5C777.02 453.5 777.02 460.5 777.02 467.5C777.02 516.17 777.02 564.83 777.02 613.5C777.02 631.45 782.17 660.75 758.25 665.65C744.09 668.55 730.55 659.03 728.61 644.74C727.28 635 728.45 624.34 728.45 614.5C728.45 594.17 728.45 573.83 728.45 553.5C728.45 545.17 728.45 536.83 728.45 528.5C728.45 523.67 727.71 519.17 730.5 515.06ZM885.47 562.5C892.57 560.17 906.95 561.87 915.5 560.82C931.11 558.91 947.56 550.25 957.91 538.38C987.91 503.93 980.01 452.23 940.06 429.43C918.6 417.18 893.26 420.31 869.5 420.31C861.01 420.31 846.23 418.7 838.5 420.91C828.15 423.87 827.54 433.35 827.54 442.5C827.54 451.83 827.54 461.17 827.54 470.5C827.54 516.83 827.54 563.17 827.54 609.5C827.54 618.46 825.83 639.49 828.52 647.01C829.82 650.65 832.7 653.72 836.19 655.36C844.31 659.21 855.17 654.57 857.05 645.48C858.41 638.9 857.37 631.21 857.37 624.5C857.37 610.83 857.37 597.17 857.37 583.5C857.37 576.7 853.8 559.22 864.97 562.5C868 567.53 866.44 579.34 866.44 585.5C866.44 599.83 866.44 614.17 866.44 628.5C866.44 635.95 867.55 644.2 864.71 651.25C858.97 665.51 839.67 670.2 827.74 660.75C817.75 652.84 818.62 641.06 818.62 629.5C818.62 622.5 818.62 615.5 818.62 608.5C818.62 560.5 818.62 512.5 818.62 464.5C818.62 446.68 813.36 417.75 836.53 412.08C845.93 409.77 865.98 411.41 876.5 411.41C891.93 411.41 908.19 409.91 923.35 413.31C955.75 420.57 981.66 449.35 984.87 482.5C988.21 517.02 969.16 549.96 937.33 563.84C924.56 569.41 911.28 570.5 897.5 570.5C892.05 570.5 879.92 571.83 885.47 562.5ZM403.05 444.09C403.05 464.37 403.05 484.64 403.05 504.91C399.63 504.91 396.22 504.91 392.8 504.91C392.8 484.64 392.8 464.37 392.8 444.09C396.22 444.09 399.63 444.09 403.05 444.09ZM440.1 444.09C440.1 453.13 440.1 462.16 440.1 471.19C442.5 470.16 444.95 468.67 447.63 468.39C462.24 466.9 461.76 480.11 461.76 490.5C461.76 495.3 462.02 500.16 461.46 504.92C458.18 504.92 454.89 504.92 451.61 504.92C450.86 497.82 451.9 490.61 451.27 483.5C451.01 480.56 450.07 477.07 446.5 476.84C442.43 476.58 440.7 480.06 440.3 483.53C439.49 490.6 440.4 497.82 439.8 504.91C436.44 504.91 433.08 504.91 429.72 504.91C429.72 484.64 429.72 464.37 429.72 444.09C433.18 444.09 436.64 444.09 440.1 444.09ZM864.5 477.46C867.53 480.38 866.44 485.54 866.44 489.5C866.44 500.14 866.01 510.88 866.54 521.5C872.63 523.41 880.04 522.43 886.5 522.43C896.08 522.43 907.11 523.95 916.28 520.7C931.47 515.33 940.75 498.09 936.05 482.51C928.57 457.72 907.74 459.2 886.5 459.2C878.66 459.2 870.29 460.04 862.5 459.18C860.01 458.9 856.87 457.15 857.59 454.07C858.58 449.84 863.13 450.29 866.5 450.29C874.83 450.29 883.17 450.29 891.5 450.29C900.43 450.29 909.64 449.57 918.27 452.3C936.6 458.09 948.49 477.57 945.91 496.5C943.65 513.12 930.67 527.21 914.18 530.55C904.98 532.42 894.84 531.32 885.5 531.32C878.83 531.32 872.17 531.32 865.5 531.32C862.91 531.32 859.92 531.69 858.31 529.21C856.22 526 857.37 520.16 857.37 516.5C857.37 508.17 857.37 499.83 857.37 491.5C857.37 488.06 856.58 483.51 857.65 480.21C858.79 476.67 861.52 476.81 864.5 477.46ZM267.96 450.75C271.59 450.75 275.22 450.75 278.85 450.75C278.85 457.79 278.85 464.83 278.85 471.87C285.23 471.87 291.61 471.87 298 471.87C298 464.83 298 457.79 298 450.75C301.64 450.75 305.27 450.75 308.91 450.75C308.91 468.83 308.91 486.92 308.91 505C305.26 505 301.62 505 297.98 505C297.98 496.96 297.98 488.92 297.98 480.87C291.61 480.87 285.24 480.87 278.88 480.87C278.88 488.92 278.88 496.96 278.88 505C275.24 505 271.6 505 267.96 505C267.96 486.92 267.96 468.83 267.96 450.75ZM411.5 457.8C414.9 457.8 418.31 457.8 421.71 457.8C421.71 461.71 421.71 465.63 421.71 469.55C423.72 469.55 425.73 469.55 427.75 469.55C427.75 472.5 427.75 475.46 427.75 478.41C425.71 478.41 423.68 478.41 421.65 478.41C421.65 487.25 421.65 496.09 421.65 504.93C418.16 504.93 414.68 504.93 411.19 504.93C411.19 496.46 411.19 487.98 411.19 479.5C407.23 477.32 407.84 474.82 407.85 470.5C412.94 467.67 410.85 463.04 411.5 457.8ZM347.64 489.12C340.13 489.12 332.61 489.12 325.1 489.12C324.93 500.18 331.81 500.08 338.5 493.69C341.39 494.3 344.27 494.9 347.16 495.5C343.85 506.14 329.23 509.63 320.51 503.01C313.46 497.66 311.91 487.43 314.78 479.37C318.46 469.02 332.1 464.65 341.05 471.44C346.58 475.63 347.95 482.58 347.64 489.12ZM374.5 471.29C378.04 468.9 381.7 469.45 385.84 469.78C385.84 481.45 385.84 493.13 385.84 504.8C381.7 505.14 377.9 505.76 374.5 503.23C371.19 505.65 367.63 506.64 363.5 506.06C343.66 503.3 345.86 467.61 366.49 468.33C369.47 468.43 371.99 469.8 374.5 471.29ZM337.61 481.5C335.02 474.39 327.77 474.49 325.21 481.5C328.82 483.02 333.97 483.12 337.61 481.5ZM365.74 478.25C356.18 481.47 359.85 499.11 370.3 496.7C380.82 494.27 376.98 474.46 365.74 478.25ZM184.37 524.5C184.37 527.41 184.37 530.31 184.37 533.22C182.41 533.22 180.46 533.22 178.5 533.22C175.21 537.32 176.47 544.94 177.04 549.91C179.51 549.91 181.98 549.91 184.45 549.91C184.45 552.9 184.45 555.89 184.45 558.88C181.83 558.88 179.22 558.88 176.61 558.88C176.61 567.82 176.61 576.77 176.61 585.71C173.23 585.71 169.84 585.71 166.46 585.71C165.33 579.81 165.84 573.53 165.84 567.5C165.84 565.5 166.61 561.55 165.63 559.77C165.11 558.84 163.33 558.28 162.52 557.5C162.52 555.5 162.52 553.5 162.52 551.5C163.63 550.5 164.74 549.5 165.86 548.5C165.8 535.58 166.44 519.82 184.37 524.5ZM376.75 529.45C384.87 528.26 386.31 540.71 378.19 541.51C370.81 542.24 369.48 530.51 376.75 529.45ZM109.03 531.04C112.63 531.04 116.24 531.04 119.85 531.04C119.85 549.26 119.85 567.48 119.85 585.71C116.24 585.71 112.63 585.71 109.03 585.71C109.03 567.48 109.03 549.26 109.03 531.04ZM363.84 538.13C363.84 542.06 363.84 545.98 363.84 549.91C365.94 549.91 368.04 549.91 370.15 549.91C370.15 552.9 370.15 555.9 370.15 558.89C368.04 558.89 365.94 558.89 363.83 558.89C363.83 567.82 363.83 576.75 363.83 585.68C360.43 585.68 357.03 585.68 353.63 585.68C353.63 577 353.63 568.33 353.63 559.65C348.22 557.24 348.72 551.52 353.63 548.88C353.63 545.3 353.63 541.71 353.63 538.13C357.03 538.13 360.44 538.13 363.84 538.13ZM158.5 585.66C155.36 585.66 152.21 585.66 149.07 585.66C147.15 579.08 148.86 571.35 148.4 564.5C148.18 561.3 147.34 557.52 143.46 557.29C139.76 557.07 137.81 560.5 137.42 563.73C136.55 571.03 138.09 578.5 136.68 585.72C133.39 585.72 130.1 585.72 126.81 585.72C126.81 573.77 126.81 561.81 126.81 549.86C129.44 549.87 132.92 549.29 135.47 549.95C136.71 550.27 137.42 551.15 138.58 551.5C144.73 547.47 154.75 547.88 157.57 555.86C160.3 563.57 159.26 577.47 158.5 585.66ZM199.6 549.31C206.05 548.15 213.35 549.59 217.85 554.68C226.73 564.71 222.66 582.37 209.47 586.07C183.16 593.45 175.44 553.66 199.6 549.31ZM249.43 549.5C250.51 552.52 249.91 555.42 249.03 558.5C246.83 558.53 244.39 557.81 242.21 558.65C234.68 561.54 238.1 579.14 236.8 585.72C233.49 585.72 230.18 585.72 226.87 585.72C226.87 573.82 226.87 561.92 226.87 550.02C231.21 549.84 235.17 549.11 238.5 551.98C241.99 549.16 245.04 548.62 249.43 549.5ZM283.5 553.57C289.13 548.05 299.71 546.39 303.45 555.04C306.2 561.41 305.2 578.48 304.5 585.69C301.35 585.69 298.2 585.69 295.06 585.69C292.67 578.26 297.87 561.4 290.5 557.29C288.85 557.55 287.65 557.56 286.49 558.98C282.79 563.54 284.97 579.43 284.5 585.64C281.17 585.64 277.83 585.64 274.5 585.64C273.57 579.47 276.08 563.3 272.57 558.94C271.37 557.44 270.25 557.51 268.5 557.32C261.38 561.42 265.33 578.25 263.73 585.68C260.51 585.68 257.29 585.68 254.06 585.68C254.06 573.88 254.06 562.08 254.06 550.27C258.19 549.79 262.12 549.09 265.5 551.77C272.8 546.04 277.06 549.83 283.5 553.57ZM334.5 551.95C337.19 548.71 341.85 549.74 345.62 550.5C345.62 562.17 345.62 573.83 345.62 585.5C341.68 585.88 337.36 586.84 334.5 583.78C331.64 585.32 328.85 586.87 325.5 586.87C303.96 586.9 303.89 548.6 325.5 548.87C328.92 548.91 331.58 550.45 334.5 551.95ZM401.8 549.41C426.48 543.99 434.54 579.74 412.46 586.01C386.44 593.4 378.15 554.6 401.8 549.41ZM461.5 585.66C458.32 585.66 455.14 585.66 451.96 585.66C450.15 579.03 451.75 571.37 451.3 564.5C451.09 561.31 450.3 557.56 446.46 557.31C442.68 557.06 440.84 560.31 440.38 563.61C439.35 570.94 440.83 578.45 439.5 585.7C436.25 585.7 432.99 585.7 429.74 585.7C429.74 573.97 429.74 562.23 429.74 550.5C433.28 549.7 438.04 548.73 440.5 551.8C442.81 550.71 444.85 549.32 447.5 549.02C461.89 547.39 461.76 560.16 461.76 570.5C461.76 575.55 461.92 580.62 461.5 585.66ZM382.98 550C382.98 561.9 382.98 573.8 382.98 585.7C379.53 585.7 376.07 585.7 372.61 585.7C372.61 573.8 372.61 561.9 372.61 550C376.07 550 379.53 550 382.98 550ZM202.62 558.32C192.62 559.69 193.92 578.21 204.5 577.32C215.24 576.41 213.64 556.82 202.62 558.32ZM326.65 558.32C316.57 559.84 318.02 578.01 328.5 577.36C339.38 576.69 337.79 556.63 326.65 558.32ZM404.81 558.43C395.48 560.58 396.88 578.55 406.93 577.46C418.52 576.19 416.27 555.79 404.81 558.43ZM367.76 610.3C375.3 607.85 379.59 619.32 372.25 621.66C364.75 624.06 360.38 612.71 367.76 610.3ZM260.73 611.82C268.99 611.39 280.55 609.87 287.83 614.65C296.32 620.21 296.69 636.91 288.32 642.83C283.39 646.31 277.16 645.62 271.53 646.5C271.53 653 271.53 659.51 271.53 666.01C267.93 666.01 264.33 666.01 260.73 666.01C260.73 647.94 260.73 629.88 260.73 611.82ZM450.1 618.86C453.61 618.86 457.12 618.86 460.63 618.86C460.63 622.84 460.63 626.83 460.63 630.82C462.65 630.82 464.68 630.82 466.71 630.82C466.71 633.63 466.71 636.44 466.71 639.25C464.68 639.25 462.66 639.25 460.64 639.25C460.64 648.19 460.64 657.14 460.64 666.08C457.11 666.08 453.58 666.08 450.06 666.08C450.06 657.55 450.06 649.03 450.06 640.5C444.87 636.64 445.4 633.3 450.1 629.5C450.1 625.95 450.1 622.4 450.1 618.86ZM271.56 621.48C271.56 626.48 271.56 631.49 271.56 636.5C274.7 636.81 278.71 637.18 281.2 634.69C282.57 633.31 282.91 631.36 282.99 629.5C283.31 622.19 277.96 619.99 271.56 621.48ZM321.23 630.56C321.23 633.43 321.23 636.3 321.23 639.17C318.53 638.93 315.49 638.29 312.93 639.48C306.83 642.29 308.9 660.2 308.98 665.99C305.49 665.99 302 665.99 298.52 665.99C298.52 654.5 298.52 643 298.52 631.5C302.22 630.64 306.8 629.85 309.78 632.5C313.51 630 317.07 628.64 321.23 630.56ZM413.94 650.17C406.46 650.17 398.98 650.17 391.5 650.17C391.24 659.93 398.25 661.8 404.5 654.94C407.53 655.46 410.55 655.98 413.58 656.5C410.77 668.01 394.49 670.29 386.08 663.43C379.35 657.94 378.68 647.51 381.42 639.81C385.11 629.47 400.07 625.99 408.33 633.12C413.32 637.44 414.3 643.97 413.94 650.17ZM442.68 631.5C442.68 634.53 442.68 637.56 442.68 640.59C439.49 639.63 436.69 637.52 433.07 638.58C425.87 640.69 424.64 652.01 430.03 656.5C434.15 659.93 438.46 657.61 442.67 656.32C442.67 659.38 442.67 662.44 442.67 665.5C438.96 666.74 435.47 667.69 431.5 667.19C411.01 664.6 411.6 632.96 431.5 629.76C435.48 629.12 439.01 630.01 442.68 631.5ZM335.6 630.18C342.67 628.47 350.85 630.06 355.65 635.82C363.51 645.24 360.17 661.61 348.48 666.05C322.42 675.94 311.94 635.9 335.6 630.18ZM375.26 630.98C375.26 648.96 375.26 666.95 375.26 684.93C371.76 684.93 368.26 684.93 364.76 684.93C364.76 666.95 364.76 648.96 364.76 630.98C368.26 630.98 371.76 630.98 375.26 630.98ZM403.92 643.75C402.53 634.62 393.27 634.57 391.81 643.75C395.85 643.75 399.88 643.75 403.92 643.75ZM338.67 639.21C329.38 642.17 332.24 659.44 342.47 657.93C353.27 656.35 350.3 635.5 338.67 639.21Z" fill="#030303" fill-rule="evenodd" stroke="#030303" stroke-width="0.25" stroke-linejoin="round"/>
</svg>