<?xml version="1.0" encoding="UTF-8"?>
<svg xmlns="http://www.w3.org/2000/svg" viewBox="0 0 200 200" width="200" height="200">
<path d="M0.13 0.13C66.71 0.13 133.29 0.13 199.88 0.13C199.88 66.71 199.88 133.29 199.88 199.88C133.29 199.88 66.71 199.88 0.13 199.88C0.13 133.29 0.13 66.71 0.13 0.13ZM71.35 69.21C67.94 69.71 64.49 71.02 61.56 72.78C58.83 74.43 56.19 76.41 54.33 79.06C42.28 96.19 57.28 119.65 77.72 116.84C81.36 116.33 87.27 114.48 89.56 111.33C91.52 108.64 88.61 103.59 85.9 102.35C83.27 101.16 80.29 104.55 77.77 105.12C69.65 106.95 61.8 101.9 61.59 93.25C61.42 85.93 67.77 79.69 75.25 80.38C81.09 80.92 85.77 88 89.74 79.52C91.29 76.2 89.41 74.15 86.66 72.57C82.05 69.9 76.73 68.43 71.35 69.21ZM18.75 103.85C21.12 103.1 23.77 103.63 26.25 103.49C30.23 103.25 33.73 102.04 36.92 99.65C48.01 91.38 43.75 74.71 31.45 70.3C26.37 68.48 19.57 69.38 14.25 69.47C12.53 69.49 9.69 69.32 8.28 70.52C5.83 72.61 6.97 78.42 6.97 81.25C6.96 88.58 6.97 95.92 6.97 103.25C6.97 106.42 6.28 110.54 7.22 113.6C8.2 116.79 13.97 116.99 16.4 115.65C20.16 113.57 17.1 107 18.75 103.85ZM123.23 89.75C119.21 85.7 115.82 80.42 112.44 75.81C111.2 74.13 109.78 71.4 107.9 70.37C105.92 69.28 102.01 69.21 100.02 70.29C97.15 71.86 98.17 77.66 98.17 80.25C98.15 89.08 98.17 97.92 98.17 106.75C98.17 109.24 97.32 114.16 100.08 115.65C101.1 116.2 102.49 116.2 103.62 116.25C105.25 116.31 107.51 116.27 108.58 114.83C109.81 113.16 109.55 110.7 109.55 108.75C109.55 104.75 109.54 100.75 109.55 96.75C109.56 94.82 109.03 92.05 110.25 90.59C114.47 94.22 118.87 106.98 125.96 103.69C129.18 102.2 131.69 97.24 133.66 94.41C134.67 92.96 135.55 91.09 137.25 90.72C138.19 95.97 137.47 101.9 137.48 107.25C137.49 109.47 137.01 112.58 138.17 114.61C139.43 116.82 144.57 116.65 146.61 115.8C149.9 114.44 148.9 108.44 148.9 105.75C148.9 97.08 148.86 88.42 148.89 79.75C148.9 77.2 149.78 72.23 147.31 70.45C145.41 69.08 140.68 69.2 138.8 70.53C135.73 72.71 130.04 81.97 127.17 85.39C126.04 86.73 124.95 89.18 123.23 89.75ZM169.25 103.99C173.01 102.28 179.05 104.31 184.43 101.68C197.1 95.49 196.86 77.08 184.12 71.16C178.36 68.48 171.43 69.51 165.25 69.44C163.25 69.42 159.28 69.23 158.23 71.43C157.21 73.57 157.72 76.95 157.74 79.25C157.77 84.58 157.74 89.92 157.74 95.25C157.74 99.75 157.74 104.25 157.74 108.75C157.74 110.56 157.39 113.17 158.54 114.7C159.54 116.05 161.2 116.16 162.75 116.2C171.66 116.47 168.14 109.91 169.25 103.99ZM18.25 91.75C18.25 88.25 18.25 84.75 18.25 81.25C22.98 80.25 32.15 79.78 31.96 86.75C31.79 93.32 22.71 92.6 18.25 91.75ZM169.04 81.18C173.53 80.45 182.45 79.62 182.66 86.25C182.89 93.32 173.73 92.51 169.04 91.79C169.04 88.25 169.04 84.72 169.04 81.18Z" fill="#f3fff1" fill-rule="evenodd" stroke="#f3fff1" stroke-width="0.25" stroke-linejoin="round"/>
<path d="M71.35 69.21C76.73 68.43 82.05 69.9 86.66 72.57C89.41 74.15 91.29 76.2 89.74 79.52C85.77 88 81.09 80.92 75.25 80.38C67.77 79.69 61.42 85.93 61.59 93.25C61.8 101.9 69.65 106.95 77.77 105.12C80.29 104.55 83.27 101.16 85.9 102.35C88.61 103.59 91.52 108.64 89.56 111.33C87.27 114.48 81.36 116.33 77.72 116.84C57.28 119.65 42.28 96.19 54.33 79.06C56.19 76.41 58.83 74.43 61.56 72.78C64.49 71.02 67.94 69.71 71.35 69.21ZM18.75 103.85C17.1 107 20.16 113.57 16.4 115.65C13.97 116.99 8.2 116.79 7.22 113.6C6.28 110.54 6.97 106.42 6.97 103.25C6.97 95.92 6.96 88.58 6.97 81.25C6.97 78.42 5.83 72.61 8.28 70.52C9.69 69.32 12.53 69.49 14.25 69.47C19.57 69.38 26.37 68.48 31.45 70.3C43.75 74.71 48.01 91.38 36.92 99.65C33.73 102.04 30.23 103.25 26.25 103.49C23.77 103.63 21.12 103.1 18.75 103.85ZM123.23 89.75C124.95 89.18 126.04 86.73 127.17 85.39C130.04 81.97 135.73 72.71 138.8 70.53C140.68 69.2 145.41 69.08 147.31 70.45C149.78 72.23 148.9 77.2 148.89 79.75C148.86 88.42 148.9 97.08 148.9 105.75C148.9 108.44 149.9 114.44 146.61 115.8C144.57 116.65 139.43 116.82 138.17 114.61C137.01 112.58 137.49 109.47 137.48 107.25C137.47 101.9 138.19 95.97 137.25 90.72C135.55 91.09 134.67 92.96 133.66 94.41C131.69 97.24 129.18 102.2 125.96 103.69C118.87 106.98 114.47 94.22 110.25 90.59C109.03 92.05 109.56 94.82 109.55 96.75C109.54 100.75 109.55 104.75 109.55 108.75C109.55 110.7 109.81 113.16 108.58 114.83C107.51 116.27 105.25 116.31 103.62 116.25C102.49 116.2 101.1 116.2 100.08 115.65C97.32 114.16 98.17 109.24 98.17 106.75C98.17 97.92 98.15 89.08 98.17 80.25C98.17 77.66 97.15 71.86 100.02 70.29C102.01 69.21 105.92 69.28 107.9 70.37C109.78 71.4 111.2 74.13 112.44 75.81C115.82 80.42 119.21 85.7 123.23 89.75ZM169.25 103.99C168.14 109.91 171.66 116.47 162.75 116.2C161.2 116.16 159.54 116.05 158.54 114.7C157.39 113.17 157.74 110.56 157.74 108.75C157.74 104.25 157.74 99.75 157.74 95.25C157.74 89.92 157.77 84.58 157.74 79.25C157.72 76.95 157.21 73.57 158.23 71.43C159.28 69.23 163.25 69.42 165.25 69.44C171.43 69.51 178.36 68.48 184.12 71.16C196.86 77.08 197.1 95.49 184.43 101.68C179.05 104.31 173.01 102.28 169.25 103.99ZM18.25 91.75C22.71 92.6 31.79 93.32 31.96 86.75C32.15 79.78 22.98 80.25 18.25 81.25C18.25 84.75 18.25 88.25 18.25 91.75ZM169.04 81.18C169.04 84.72 169.04 88.25 169.04 91.79C173.73 92.51 182.89 93.32 182.66 86.25C182.45 79.62 173.53 80.45 169.04 81.18Z" fill="#3d825b" fill-rule="evenodd" stroke="#3d825b" stroke-width="0.25" stroke-linejoin="round"/>
</svg>