<?xml version="1.0" encoding="UTF-8"?>
<!-- Generated by @neplex/vectorizer (Using visioncortex VTracer) -->
<svg viewBox="0 0 150 150" version="1.1" xmlns="http://www.w3.org/2000/svg" width="100%" height="auto">
<path d="M0 0 C0.8456249999999983 -0.20624999999999982 1.6912499999999966 -0.41249999999999964 2.5625 -0.625 C3.366874999999993 -0.4187500000000002 4.171250000000001 -0.21250000000000036 5 0 C5.133015136718754 0.5058764648437499 5.266030273437494 1.0117529296874999 5.403076171875 1.532958984375 C5.534197998046864 2.4737731933593743 5.534197998046864 2.4737731933593743 5.66796875 3.43359375 C5.829665527343749 4.068134765625 5.991362304687499 4.702675781250001 6.157958984375 5.3564453125 C6.435832519531246 5.898818359374999 6.713706054687506 6.441191406249999 7 7 C7.771624755859364 7.3920361328125 7.771624755859364 7.3920361328125 8.558837890625 7.7919921875 C9.194265136718755 7.926376953125001 9.829692382812496 8.06076171875 10.484375 8.19921875 C11.172734375000005 8.29396484375 11.861093749999995 8.3887109375 12.5703125 8.486328125 C13.289609374999998 8.55271484375 14.008906249999995 8.6191015625 14.75 8.6875 C15.805742187500002 8.804482421875 15.805742187500002 8.804482421875 16.8828125 8.923828125 C17.576328125000003 9.014707031249998 18.269843750000007 9.105585937500003 18.984375 9.19921875 C19.665644531249995 9.3041162109375 20.346914062500005 9.409013671875002 21.048828125 9.51708984375 C22.014658203124995 9.75613037109375 22.014658203124995 9.75613037109375 23 10 C23.576855468749997 10.2740869140625 24.153710937499994 10.548173828125002 24.748046875 10.83056640625 C25.530185546875003 11.326291503906251 25.530185546875003 11.326291503906251 26.328125 11.83203125 C26.799357910156246 12.190954589843749 27.270590820312506 12.5498779296875 27.756103515625 12.919677734375 C28.166589355468744 13.27618408203125 28.577075195312503 13.6326904296875 29 14 C29.6123046875 14.585234374999999 30.224609375 15.170468749999998 30.85546875 15.7734375 C31.233164062499995 16.508203125 31.610859375000004 17.24296875 32 18 C32.0845947265625 18.545595703125 32.169189453125 19.09119140625 32.25634765625 19.6533203125 C32.291635742187495 20.275615234375 32.326923828125004 20.89791015625 32.36328125 21.5390625 C32.364812011718755 22.19785400390625 32.366342773437495 22.8566455078125 32.367919921875 23.535400390625 C32.349631347656256 24.22496826171875 32.3313427734375 24.9145361328125 32.3125 25.625 C32.29614501953125 26.33197021484375 32.279790039062505 27.0389404296875 32.262939453125 27.767333984375 C32.240622558593756 28.47446533203125 32.2183056640625 29.1815966796875 32.1953125 29.91015625 C32.162119140624995 30.605122070312504 32.128925781250004 31.300087890625 32.0947265625 32.01611328125 C32.063466796875005 32.6707958984375 32.032207031249996 33.325478515625 32 34 C31.989365234375 34.5734716796875 31.97873046875 35.146943359375 31.9677734375 35.73779296875 C31.955205078125005 36.2561572265625 31.942636718749995 36.774521484375 31.9296875 37.30859375 C31.849765625000003 38.2173828125 31.769843750000007 39.126171875 31.6875 40.0625 C31.509609374999997 40.84625 31.331718749999993 41.63 31.1484375 42.4375 C30.579960937500005 43.2109375 30.579960937500005 43.2109375 30 44 C28.843710937499992 44.0309375 28.843710937499992 44.0309375 27.6640625 44.0625 C26.723046874999994 43.8975 25.782031250000003 43.7325 24.8125 43.5625 C24.3195947265625 43.4608251953125 23.826689453125 43.359150390625 23.31884765625 43.25439453125 C22.826909179687505 43.1730224609375 22.334970703124995 43.091650390625 21.828125 43.0078125 C20.894843750000007 43.005234375 19.9615625 43.00265625 19 43 C18.29359375 43.533671875 17.5871875 44.06734375 16.859375 44.6171875 C16.266406250000003 45.382890625 15.673437500000006 46.14859375 15.0625 46.9375 C14.256191406249997 48.17693359375 14.256191406249997 48.17693359375 13.43359375 49.44140625 C12.723964843749997 50.707910156249994 12.723964843749997 50.707910156249994 12 52 C11.5784765625 52.7515234375 11.156953125000001 53.503046875 10.72265625 54.27734375 C10.179316406249995 55.315683593749995 10.179316406249995 55.315683593749995 9.625 56.375 C9.328515624999994 57.00148437499999 9.032031250000003 57.62796875000001 8.7265625 58.2734375 C8.486796874999996 58.843203125 8.247031250000006 59.412968750000005 8 60 C7.807929687500007 60.4833984375 7.615859374999999 60.966796875 7.41796875 61.46484375 C7.280039062499995 61.97144531250001 7.142109375000004 62.47804687499999 7 63 C6.921367187499996 63.65355468749999 6.842734375000006 64.307109375 6.76171875 64.98046875 C6.7249804687500045 66.07294921875001 6.7249804687500045 66.07294921875001 6.6875 67.1875 C6.705546874999996 67.9905859375 6.723593750000006 68.793671875 6.7421875 69.62109375 C6.8272656249999955 70.4061328125 6.912343750000005 71.191171875 7 72 C7.167578125000006 72.6303515625 7.335156249999997 73.260703125 7.5078125 73.91015625 C7.9061328125000045 74.82087890625 7.9061328125000045 74.82087890625 8.3125 75.75 C8.673437500000006 76.397109375 9.034374999999997 77.04421875 9.40625 77.7109375 C9.932187499999998 78.466328125 10.458124999999995 79.22171875 11 80 C11.381562500000001 80.479853515625 11.763125000000002 80.95970703125 12.15625 81.4541015625 C12.589375000000004 81.977138671875 13.022499999999994 82.50017578125 13.46875 83.0390625 C13.928623046875003 83.58280517578125 14.388496093750007 84.1265478515625 14.8623046875 84.686767578125 C15.340869140625003 85.24388427734375 15.819433593750006 85.8010009765625 16.3125 86.375 C16.796220703125 86.93147216796875 17.279941406250003 87.4879443359375 17.7783203125 88.061279296875 C18.258818359375 88.61468994140625 18.739316406249998 89.1681005859375 19.234375 89.73828125 C19.705527343750006 90.2856494140625 20.1766796875 90.833017578125 20.662109375 91.39697265625 C21.324365234374994 92.19047119140626 21.324365234374994 92.19047119140626 22 93 C22.382207031250005 93.4941943359375 22.764414062499995 93.988388671875 23.158203125 94.49755859375 C23.503027343750006 94.9662939453125 23.847851562499997 95.435029296875 24.203125 95.91796875 C24.522409667968745 96.3667236328125 24.841694335937504 96.815478515625 25.170654296875 97.27783203125 C25.464963378906248 97.7017724609375 25.759272460937495 98.125712890625 26.0625 98.5625 C26.589726562500005 99.3269140625 27.116953124999995 100.091328125 27.66015625 100.87890625 C28.102304687499995 101.5788671875 28.544453125000004 102.278828125 29 103 C29.3815625 103.6432421875 29.763125000000002 104.286484375 30.15625 104.94921875 C30.434687499999995 105.6259765625 30.713125000000005 106.302734375 31 107 C31.122460937499994 107.83015625 31.244921875000003 108.6603125 31.37109375 109.515625 C31.393007812500002 110.41796875 31.414921875000005 111.3203125 31.4375 112.25 C31.416875000000005 113.2180859375 31.396249999999995 114.186171875 31.375 115.18359375 C31.189375 116.57771484375 31.189375 116.57771484375 31 118 C30.711250000000007 118.7541015625 30.4225 119.508203125 30.125 120.28515625 C29.733125 120.9541796875 29.341250000000002 121.623203125 28.9375 122.3125 C28.48375 122.93640625 28.03 123.56031250000001 27.5625 124.203125 C26.7890625 125.09257812499999 26.7890625 125.09257812499999 26 126 C25.4225 126.61359375 24.845 127.22718750000001 24.25 127.859375 C23.651875000000004 128.42140625 23.053749999999994 128.9834375 22.4375 129.5625 C21.879335937500002 130.0587890625 21.321171875000005 130.555078125 20.74609375 131.06640625 C20.169882812500006 131.3744921875 19.593671875 131.682578125 19 132 C18.3283984375 131.9987109375 17.656796874999998 131.997421875 16.96484375 131.99609375 C15.992246093749998 131.50302734374998 15.992246093749998 131.50302734374998 15 131 C14.528203125000005 130.2265625 14.056406249999995 129.453125 13.5703125 128.65625 C13.339812011718749 128.16060546875 13.109311523437498 127.66496093749998 12.871826171875 127.154296875 C12.625373535156257 126.60837890624998 12.3789208984375 126.06246093750002 12.125 125.5 C11.843098144531254 124.92830078125002 11.561196289062494 124.3566015625 11.270751953125 123.767578125 C10.953239746093743 123.16365234375002 10.6357275390625 122.5597265625 10.30859375 121.9375 C9.956518554687506 121.30070312499998 9.604443359374997 120.66390625 9.24169921875 120.0078125 C8.831938476562499 119.345234375 8.422177734374998 118.68265625 8 118 C7.496137695312498 117.316796875 6.992275390624997 116.63359375 6.47314453125 115.9296875 C5.637590332031252 114.8816796875 5.637590332031252 114.8816796875 4.78515625 113.8125 C4.2015332031249955 113.1046435546875 3.617910156250005 112.396787109375 3.0166015625 111.66748046875 C2.111196289062505 110.59457763671875 2.111196289062505 110.59457763671875 1.1875 109.5 C0.5748730468749983 108.7757080078125 -0.03775390625000341 108.051416015625 -0.6689453125 107.30517578125 C-1.277060546874992 106.5882958984375 -1.8851757812499983 105.871416015625 -2.51171875 105.1328125 C-3.4057641601562523 104.0814208984375 -3.4057641601562523 104.0814208984375 -4.31787109375 103.0087890625 C-4.872973632812503 102.345888671875 -5.428076171875006 101.68298828125 -6 101 C-6.468735351562501 100.411865234375 -6.937470703125001 99.82373046875 -7.42041015625 99.2177734375 C-7.844995117187494 98.668955078125 -8.269580078125003 98.12013671875 -8.70703125 97.5546875 C-9.112924804687509 97.023271484375 -9.51881835937499 96.49185546875 -9.93701171875 95.9443359375 C-10.329047851562507 95.426455078125 -10.721083984375 94.90857421875 -11.125 94.375 C-11.514458007812493 93.862275390625 -11.903916015625 93.34955078125 -12.30517578125 92.8212890625 C-12.698178710937498 92.305341796875 -13.091181640624995 91.78939453125 -13.49609375 91.2578125 C-13.895541992187503 90.734775390625 -14.294990234375007 90.21173828125 -14.70654296875 89.6728515625 C-15.133383789062492 89.120810546875 -15.560224609374998 88.56876953125 -16 88 C-16.4874267578125 87.383505859375 -16.974853515625 86.76701171875 -17.47705078125 86.1318359375 C-17.9912255859375 85.487626953125 -18.505400390625 84.84341796875 -19.03515625 84.1796875 C-19.554970703125008 83.5298388671875 -20.07478515625 82.879990234375 -20.6103515625 82.21044921875 C-21.130810546874997 81.5635009765625 -21.651269531249994 80.916552734375 -22.1875 80.25 C-22.954653320312502 79.30858154296874 -22.954653320312502 79.30858154296874 -23.7373046875 78.34814453125 C-24.232626953124992 77.7382568359375 -24.72794921875 77.128369140625 -25.23828125 76.5 C-25.713461914062492 75.909609375 -26.188642578125 75.31921875 -26.67822265625 74.7109375 C-27.33250244140625 73.8640234375 -27.33250244140625 73.8640234375 -28 73 C-28.367866210937507 72.466328125 -28.735732421875 71.93265625 -29.11474609375 71.3828125 C-29.605153808593755 70.6364453125 -29.605153808593755 70.6364453125 -30.10546875 69.875 C-30.55925903320312 69.19352905273438 -30.55925903320312 69.19352905273438 -31.022216796875 68.498291015625 C-31.30363525390625 68.08635498046876 -31.5850537109375 67.6744189453125 -31.875 67.25 C-32.4009375 66.5577734375 -32.926874999999995 65.865546875 -33.46875 65.15234375 C-33.9740625 64.7720703125 -34.479375000000005 64.391796875 -35 64 C-35.85078125 64.24943359375 -35.85078125 64.24943359375 -36.71875 64.50390625 C-37.538593750000004 65.15166015624999 -37.538593750000004 65.15166015624999 -38.375 65.8125 C-38.857109375 66.3345703125 -39.33921875 66.856640625 -39.8359375 67.39453125 C-40.220078125 67.9243359375 -40.60421875 68.454140625 -41 69 C-41.33 69.66 -41.66 70.32 -42 71 C-42.18755859375 71.79277343749999 -42.18755859375 71.79277343749999 -42.37890625 72.6015625 C-42.4394921875 73.269296875 -42.500078125 73.93703125 -42.5625 74.625 C-42.55734375 75.4255078125 -42.5521875 76.226015625 -42.546875 77.05078125 C-42.36640625 78.0240234375 -42.1859375 78.997265625 -42 80 C-41.76603515625 80.5921630859375 -41.5320703125 81.184326171875 -41.291015625 81.79443359375 C-40.993886718750005 82.4333251953125 -40.696757812499996 83.072216796875 -40.390625 83.73046875 C-40.05998046875 84.39457763671875 -39.7293359375 85.0586865234375 -39.388671875 85.742919921875 C-39.03353515625 86.42588134765624 -38.6783984375 87.1088427734375 -38.3125 87.8125 C-37.94962890625 88.50512939453125 -37.5867578125 89.1977587890625 -37.212890625 89.911376953125 C-36.84873046875 90.60062255859376 -36.4845703125 91.2898681640625 -36.109375 92 C-35.74908203125 92.678046875 -35.388789062499995 93.35609375 -35.017578125 94.0546875 C-34.68177734375 94.696640625 -34.3459765625 95.33859375 -34 96 C-33.71833984375 96.5671875 -33.4366796875 97.134375 -33.146484375 97.71875 C-32.89705078125 98.2446875 -32.6476171875 98.770625 -32.390625 99.3125 C-32.162138671875 99.8163623046875 -31.933652343749998 100.320224609375 -31.6982421875 100.83935546875 C-31.488447265625 101.3254931640625 -31.278652343749997 101.811630859375 -31.0625 102.3125 C-30.863017578125003 102.7921923828125 -30.66353515625 103.271884765625 -30.4580078125 103.76611328125 C-30.275927734375003 104.2377490234375 -30.09384765625 104.709384765625 -29.90625 105.1953125 C-29.607187500000002 106.120859375 -29.308124999999997 107.04640625 -29 108 C-28.8040625 108.946171875 -28.608125 109.89234375 -28.40625 110.8671875 C-28.292812499999997 111.797890625 -28.179374999999993 112.72859375 -28.0625 113.6875 C-28.01609375000001 114.5782421875 -27.969687499999992 115.468984375 -27.921875 116.38671875 C-27.960546875000006 117.68029296875 -27.960546875000006 117.68029296875 -28 119 C-28.108281250000005 119.8520703125 -28.21656250000001 120.704140625 -28.328125 121.58203125 C-28.487968749999993 122.37996093750002 -28.6478125 123.177890625 -28.8125 124 C-28.983945312499998 124.70125000000002 -29.155390625000003 125.4025 -29.33203125 126.125 C-29.5524609375 126.74375 -29.772890625000002 127.36250000000001 -30 128 C-30.278507995605466 128.52468368530273 -30.55701599121094 129.04936737060547 -30.843963623046875 129.58995056152344 C-31.225455627441406 130.0552668762207 -31.606947631835936 130.52058319091796 -32 131 C-32.480266418457035 131.13237564086913 -32.96053283691406 131.26475128173828 -33.455352783203125 131.40113830566406 C-34.30140579223633 131.41829139709472 -34.30140579223633 131.41829139709472 -35.16455078125 131.435791015625 C-36.125320281982425 131.46450035095216 -36.125320281982425 131.46450035095216 -37.105499267578125 131.49378967285156 C-38.13995681762695 131.49879737854002 -38.13995681762695 131.49879737854002 -39.1953125 131.50390625 C-39.90275604248047 131.51389144897462 -40.61019958496094 131.5238766479492 -41.339080810546875 131.53416442871094 C-42.0689419555664 131.54158157348633 -42.79880310058594 131.5489987182617 -43.55078125 131.556640625 C-44.300532226562495 131.55639892578125 -45.050283203125005 131.5561572265625 -45.82275390625 131.555908203125 C-46.5824951171875 131.55808349609376 -47.342236328125 131.5602587890625 -48.125 131.5625 C-48.888286132812496 131.58062744140625 -49.651572265625 131.5987548828125 -50.43798828125 131.617431640625 C-51.56889892578125 131.64534790039062 -51.56889892578125 131.64534790039062 -52.72265625 131.673828125 C-53.45185272216797 131.67825424194336 -54.18104919433594 131.68268035888673 -54.932342529296875 131.68724060058594 C-55.99063766479492 131.6893025970459 -55.99063766479492 131.6893025970459 -57.0703125 131.69140625 C-58.11084274291992 131.7237410736084 -58.11084274291992 131.7237410736084 -59.172393798828125 131.75672912597656 C-59.806602478027344 131.74749923706054 -60.44081115722656 131.73826934814454 -61.09423828125 131.728759765625 C-62.0531396484375 131.48826904296874 -63.012041015625 131.2477783203125 -64 131 C-64.18498046875 130.028369140625 -64.3699609375 129.05673828125 -64.560546875 128.0556640625 C-64.50223693847656 127.2572409057617 -64.50223693847656 127.2572409057617 -64.4427490234375 126.44268798828125 C-64.22358825683594 125.72855743408203 -64.22358825683594 125.72855743408203 -64 125 C-63.327109375 124.4779296875 -62.65421875 123.95585937499999 -61.9609375 123.41796875 C-61.107578125 123.01191406250001 -60.25421875 122.605859375 -59.375 122.1875 C-58.145234375 121.43339843749999 -58.145234375 121.43339843749999 -56.890625 120.6640625 C-56.26671875 120.114921875 -55.6428125 119.56578125 -55 119 C-54.89171875 118.388984375 -54.7834375 117.77796875 -54.671875 117.1484375 C-54.896171875 116.1158984375 -54.896171875 116.1158984375 -55.125 115.0625 C-55.3828125 114.2980859375 -55.640625 113.533671875 -55.90625 112.74609375 C-56.2671875 111.8398828125 -56.628125 110.933671875 -57 110 C-57.20625 109.4407080078125 -57.4125 108.881416015625 -57.625 108.30517578125 C-57.8415625 107.7004443359375 -58.058125000000004 107.095712890625 -58.28125 106.47265625 C-58.50208251953125 105.84560791015625 -58.7229150390625 105.2185595703125 -58.950439453125 104.572509765625 C-59.17304443359375 103.92983154296876 -59.395649414062504 103.2871533203125 -59.625 102.625 C-59.84953857421875 101.97781005859375 -60.0740771484375 101.3306201171875 -60.305419921875 100.663818359375 C-60.51787353515625 100.02194580078125 -60.7303271484375 99.3800732421875 -60.94921875 98.71875 C-61.1417724609375 98.0883984375 -61.334326171875 97.458046875 -61.53271484375 96.80859375 C-61.76402099609375 95.91333984375 -61.76402099609375 95.91333984375 -62 95 C-62.0858837890625 94.4701953125 -62.171767578125 93.940390625 -62.26025390625 93.39453125 C-62.3045654296875 92.9033984375 -62.348876953125 92.412265625 -62.39453125 91.90625 C-62.408710937500004 90.9884375 -62.422890625 90.070625 -62.4375 89.125 C-62.387226562500004 88.2523046875 -62.336953125 87.379609375 -62.28515625 86.48046875 C-62.1910546875 85.6619140625 -62.096953125 84.843359375 -62 84 C-61.9162109375 83.2330078125 -61.832421875 82.466015625 -61.74609375 81.67578125 C-61.6236328125 80.9371484375 -61.501171875 80.198515625 -61.375 79.4375 C-61.096562500000005 78.35468750000001 -61.096562500000005 78.35468750000001 -60.8125 77.25 C-60.544375 76.5075 -60.27625 75.765 -60 75 C-59.608125 74.175 -59.21625 73.35 -58.8125 72.5 C-58.1009375 71.2315625 -58.1009375 71.2315625 -57.375 69.9375 C-56.851640625 69.1125 -56.32828125 68.2875 -55.7890625 67.4375 C-55.504501953125 67.032734375 -55.21994140625 66.62796875 -54.9267578125 66.2109375 C-54.468012695312495 65.61152343750001 -54.468012695312495 65.61152343750001 -54 65 C-53.4909814453125 64.404453125 -53.4909814453125 64.404453125 -52.9716796875 63.796875 C-52.440424804687495 63.216796875 -52.440424804687495 63.216796875 -51.8984375 62.625 C-51.5421728515625 62.25511962890624 -51.185908203125 61.8852392578125 -50.81884765625 61.504150390625 C-50.4661279296875 61.152155761718745 -50.113408203125 60.80016113281249 -49.75 60.4375 C-48.752265625 59.47650390625 -48.752265625 59.47650390625 -47.734375 58.49609375 C-47.16203125 58.0023828125 -46.5896875 57.508671875000005 -46 57 C-45.01 56.505 -45.01 56.505 -44 56 C-44.229694824218754 55.3923681640625 -44.4593896484375 54.784736328125 -44.696044921875 54.15869140625 C-45.12635009765625 53.4463232421875 -45.5566552734375 52.733955078125 -46 52 C-46.44255126953125 51.4178271484375 -46.8851025390625 50.835654296875 -47.341064453125 50.23583984375 C-48.09456176757813 49.357263183593744 -48.09456176757813 49.357263183593744 -48.86328125 48.4609375 C-49.41862548828125 47.80295166015625 -49.9739697265625 47.1449658203125 -50.546142578125 46.467041015625 C-51.12904052734375 45.77666748046875 -51.7119384765625 45.0862939453125 -52.3125 44.375 C-52.90119873046875 43.66077880859375 -53.4898974609375 42.9465576171875 -54.096435546875 42.210693359375 C-54.67304931640625 41.49792236328125 -55.2496630859375 40.7851513671875 -55.84375 40.05078125 C-56.3967578125 39.3542041015625 -56.949765625 38.657626953125 -57.51953125 37.93994140625 C-58.25236328125 36.97967041015625 -58.25236328125 36.97967041015625 -59 36 C-59.3622265625 35.4797021484375 -59.724453125 34.959404296875 -60.09765625 34.42333984375 C-60.52884765625 33.74005615234375 -60.52884765625 33.74005615234375 -60.96875 33.04296875 C-61.4121875 32.2244140625 -61.855625 31.405859375 -62.3125 30.5625 C-62.646367187500005 29.7903515625 -62.980234374999995 29.018203125 -63.32421875 28.22265625 C-63.65873046875 27.122441406249997 -63.65873046875 27.122441406249997 -64 26 C-64.1508203125 25.2562109375 -64.301640625 24.512421875 -64.45703125 23.74609375 C-64.5124609375 23.0048828125 -64.567890625 22.263671875 -64.625 21.5 C-64.5798828125 20.77296875 -64.534765625 20.0459375 -64.48828125 19.296875 C-64.3271484375 18.53890625 -64.166015625 17.7809375 -64 17 C-63.6841796875 16.13890625 -63.368359375 15.2778125 -63.04296875 14.390625 C-62.43388671875 13.083515625 -62.43388671875 13.083515625 -61.8125 11.75 C-61.35359375 10.922421874999998 -60.8946875 10.094843749999999 -60.421875 9.2421875 C-59.952656250000004 8.502265625 -59.4834375 7.762343749999999 -59 7 C-58.59265625 6.425078124999999 -58.1853125 5.8501562499999995 -57.765625 5.2578125 C-57.36859375 4.801484375000001 -56.9715625 4.345156249999999 -56.5625 3.875 C-56.2131640625 3.5011718750000007 -55.863828125 3.1273437499999996 -55.50390625 2.7421875 C-55.0076171875 2.4972656250000007 -54.511328125 2.2523437499999996 -54 2 C-53.305960693359374 1.8552221679687495 -53.305960693359374 1.8552221679687495 -52.597900390625 1.70751953125 C-52.07317138671875 1.659663085937499 -51.548442382812496 1.6118066406249998 -51.0078125 1.5625 C-50.48098876953125 1.5816748046875002 -49.9541650390625 1.6008496093750004 -49.411376953125 1.62060546875 C-48.94562255859375 1.7458056640625 -48.4798681640625 1.8710058593749999 -48 2 C-47.25169921875 3.0557421875 -47.25169921875 3.0557421875 -46.48828125 4.1328125 C-46.29403564453125 4.601950683593749 -46.0997900390625 5.0710888671875 -45.899658203125 5.554443359375 C-45.70589599609375 6.07272705078125 -45.5121337890625 6.5910107421875 -45.3125 7.125 C-45.07813232421875 7.661975097656249 -44.8437646484375 8.1989501953125 -44.602294921875 8.752197265625 C-44.34166259765625 9.31221435546875 -44.0810302734375 9.8722314453125 -43.8125 10.44921875 C-43.5327734375 11.032358398437502 -43.253046874999995 11.615498046875 -42.96484375 12.21630859375 C-42.48724609375 13.09923583984375 -42.48724609375 13.09923583984375 -42 14 C-41.6171484375 14.5718603515625 -41.234296875 15.143720703124998 -40.83984375 15.73291015625 C-40.4183203125 16.3018701171875 -39.996796875 16.870830078125 -39.5625 17.45703125 C-39.1177734375 18.0295361328125 -38.673046875 18.602041015625 -38.21484375 19.19189453125 C-37.752070312499995 19.7679443359375 -37.289296875000005 20.343994140625 -36.8125 20.9375 C-36.3419921875 21.5212841796875 -35.871484375 22.105068359375 -35.38671875 22.70654296875 C-34.9084765625 23.2919384765625 -34.430234375 23.877333984375 -33.9375 24.48046875 C-33.4528125 25.063608398437495 -32.968125 25.646748046875004 -32.46875 26.24755859375 C-31.9840625 26.825864257812498 -31.499375 27.404169921874995 -31 28 C-30.523046875 28.5692822265625 -30.046093749999997 29.138564453125 -29.5546875 29.72509765625 C-29.082890624999997 30.2863232421875 -28.61109375000001 30.847548828125 -28.125 31.42578125 C-27.658117675781256 31.9787890625 -27.191235351562497 32.531796875 -26.710205078125 33.1015625 C-26.018341064453125 33.9175390625 -26.018341064453125 33.9175390625 -25.3125 34.75 C-24.855769042968745 35.2849609375 -24.39903808593749 35.819921875 -23.928466796875 36.37109375 C-23.481564941406248 36.894453125 -23.034663085937495 37.4178125 -22.57421875 37.95703125 C-22.1402880859375 38.4670166015625 -21.706357421874998 38.977001953125 -21.25927734375 39.50244140625 C-20.843715820312497 39.9966357421875 -20.428154296874993 40.490830078125 -20 41 C-19.611508789062498 41.4748583984375 -19.223017578124995 41.949716796875 -18.82275390625 42.43896484375 C-18.454565429687506 42.8960986328125 -18.086376953124997 43.353232421875 -17.70703125 43.82421875 C-17.35552001953124 44.2642724609375 -17.00400878906251 44.704326171875 -16.641845703125 45.15771484375 C-16.306286621093747 45.5800439453125 -15.970727539062494 46.002373046875 -15.625 46.4375 C-15.302976074218748 46.8417822265625 -14.980952148437495 47.246064453125 -14.649169921875 47.66259765625 C-14.342131347656249 48.0485107421875 -14.035092773437498 48.434423828125 -13.71875 48.83203125 C-13.151562499999997 49.5474609375 -12.584374999999994 50.262890625 -12 51 C-11.494687499999998 51.6432421875 -10.989374999999995 52.286484375 -10.46875 52.94921875 C-10.025312499999998 53.5022265625 -9.581874999999997 54.055234375 -9.125 54.625 C-8.75632812500001 55.091640625 -8.387656249999992 55.55828125 -8.0078125 56.0390625 C-7.675234375000002 56.356171875 -7.3426562500000045 56.67328125 -7 57 C-6.340000000000003 57 -5.680000000000007 57 -5 57 C-4.561557617187503 56.4954931640625 -4.123115234375007 55.990986328125 -3.67138671875 55.47119140625 C-3.179125976562503 54.7717138671875 -2.6868652343750057 54.072236328125 -2.1796875 53.3515625 C-1.3772460937500028 52.214609374999995 -1.3772460937500028 52.214609374999995 -0.55859375 51.0546875 C-0.0030078125000017053 50.252890625 0.5525781249999966 49.45109375 1.125 48.625 C1.6883203124999966 47.8309375 2.251640624999993 47.036875 2.83203125 46.21875 C3.630605468750005 45.0779296875 3.630605468750005 45.0779296875 4.4453125 43.9140625 C4.935317382812499 43.2123291015625 5.425322265624999 42.510595703125 5.93017578125 41.78759765625 C6.283217773437499 41.1976904296875 6.636259765624999 40.607783203125 7 40 C7 39.34 7 38.68 7 38 C6.312929687500002 37.693203125 5.6258593750000045 37.38640625 4.91796875 37.0703125 C4.016914062500007 36.758359375 3.1158593749999994 36.44640625 2.1875 36.125 C1.2941796875000051 35.818203125 0.400859374999996 35.51140625 -0.51953125 35.1953125 C-1.7473632812500028 34.6036328125 -1.7473632812500028 34.6036328125 -3 34 C-3.872050781249996 33.0370703125 -3.872050781249996 33.0370703125 -4.76171875 32.0546875 C-5.170351562500002 31.376640625 -5.5789843750000045 30.69859375 -6 30 C-6.330644531250002 29.2845703125 -6.330644531250002 29.2845703125 -6.66796875 28.5546875 C-6.777539062499997 28.041640625 -6.887109374999994 27.52859375 -7 27 C-7.07863281249999 26.260078125 -7.157265625000008 25.52015625 -7.23828125 24.7578125 C-7.262773437500002 23.888984375 -7.287265625000003 23.02015625 -7.3125 22.125 C-7.304765625000002 21.158203125 -7.297031250000003 20.19140625 -7.2890625 19.1953125 C-7.257158203125002 18.680009765625 -7.225253906250003 18.16470703125 -7.1923828125 17.6337890625 C-7.128896484374991 17.094638671875 -7.06541015625001 16.55548828125 -7 16 C-6.884951171875002 15.427333984375 -6.7699023437500045 14.85466796875 -6.6513671875 14.2646484375 C-6.4333544921875045 13.3872802734375 -6.4333544921875045 13.3872802734375 -6.2109375 12.4921875 C-6.046823730468759 11.9106591796875 -5.88270996093749 11.329130859374999 -5.713623046875 10.72998046875 C-5.453192138671881 9.873640136718748 -5.453192138671881 9.873640136718748 -5.1875 9 C-5.02225830078126 8.4484423828125 -4.857016601562492 7.896884765625 -4.686767578125 7.32861328125 C-4.51556396484375 6.8076708984375 -4.3443603515625 6.286728515625001 -4.16796875 5.75 C-3.782539062500007 4.842500000000001 -3.3971093749999994 3.9349999999999987 -3 3 C-2.512734375000008 2.3941406250000004 -2.0254687500000017 1.7882812500000007 -1.5234375 1.1640625 C-1.0207031249999972 0.7799218750000003 -0.5179687499999943 0.39578124999999975 0 0 Z " fill="#23D1EB" transform="translate(93,7)"/>
<path d="M0 0 C0.5787890625000003 0.2900390625 1.1575781250000006 0.580078125 1.75390625 0.87890625 C2.3507421875000034 1.4344921874999983 2.9475781249999997 1.9900781249999966 3.5625 2.5625 C4.461621093749997 3.3688085937500034 4.461621093749997 3.3688085937500034 5.37890625 4.19140625 C6.181347656249997 5.086660156250005 6.181347656249997 5.086660156250005 7 6 C7.434414062499997 6.711562499999999 7.868828125 7.423124999999999 8.31640625 8.15625 C8.5419921875 8.764687500000008 8.767578125 9.373125000000002 9 10 C8.195625 10.464062499999997 8.195625 10.464062499999997 7.375 10.9375 C6.199375000000003 11.463437499999998 6.199375000000003 11.463437499999998 5 12 C4.615859374999999 12.301640625000005 4.231718749999999 12.603281249999995 3.8359375 12.9140625 C3.477578125000001 13.293046875000002 3.1192187500000017 13.672031250000003 2.75 14.0625 C2.270468749999999 14.735390625000008 2.270468749999999 14.735390625000008 1.78125 15.421875 C1.5234375 15.942656249999999 1.265625 16.463437499999998 1 17 C0.7370312500000011 17.873984374999992 0.7370312500000011 17.873984374999992 0.46875 18.765625 C0.3965625000000017 19.441093749999993 0.3243750000000034 20.1165625 0.25 20.8125 C0.2822265625 21.5859375 0.314453125 22.359375 0.34765625 23.15625 C0.5629296875000023 24.094687499999992 0.7782031250000045 25.033125 1 26 C1.2383154296875034 26.5878125 1.4766308593749997 27.175624999999997 1.72216796875 27.78125 C2.0188134765624994 28.420625 2.315458984374999 29.060000000000002 2.62109375 29.71875 C2.9500463867187534 30.38455078125 3.2789990234374997 31.050351562499998 3.617919921875 31.736328125 C3.9708813476562455 32.42146484375 4.323842773437505 33.1066015625 4.6875 33.8125 C5.050129394531254 34.50537109375 5.412758789062501 35.1982421875 5.786376953125 35.912109375 C6.332979736328127 36.945615234375 6.332979736328127 36.945615234375 6.890625 38 C7.250917968750002 38.67804687500001 7.6112109375000045 39.35609375 7.982421875 40.0546875 C8.31822265625 40.696640625 8.654023437500001 41.33859375 9 42 C9.281660156249998 42.5671875 9.563320312499997 43.134375000000006 9.853515625 43.71875 C10.227666015624997 44.50765625 10.227666015624997 44.50765625 10.609375 45.3125 C10.837861328125001 45.8163623046875 11.066347656250002 46.320224609375 11.3017578125 46.83935546875 C11.511552734375002 47.32549316406249 11.721347656250003 47.811630859375 11.9375 48.3125 C12.136982421874997 48.7921923828125 12.33646484375 49.271884765625 12.5419921875 49.76611328125 C12.724072265624997 50.2377490234375 12.906152343750001 50.709384765625 13.09375 51.1953125 C13.392812499999998 52.12085937500001 13.691875000000003 53.04640624999999 14 54 C14.1959375 54.946171875000005 14.391874999999999 55.89234375000001 14.59375 56.8671875 C14.707187500000003 57.79789062500001 14.820625000000007 58.72859375 14.9375 59.6875 C14.98390624999999 60.578242187499995 15.030312500000008 61.46898437499999 15.078125 62.38671875 C15.039453124999994 63.680292968749995 15.039453124999994 63.680292968749995 15 65 C14.891718749999995 65.8520703125 14.783437499999991 66.704140625 14.671875 67.58203125 C14.512031250000007 68.37996093750002 14.3521875 69.177890625 14.1875 70 C14.016054687500002 70.70125000000002 13.844609374999997 71.4025 13.66796875 72.125 C13.447539062499999 72.74375 13.227109374999998 73.36250000000001 13 74 C12.721492004394534 74.52468368530273 12.442984008789061 75.04936737060547 12.156036376953125 75.58995056152344 C11.774544372558594 76.05526687622068 11.393052368164064 76.52058319091799 11 77 C10.519733581542965 77.13237564086916 10.039467163085938 77.26475128173828 9.544647216796875 77.40113830566406 C8.980611877441405 77.41257369995117 8.416576538085934 77.42400909423827 7.83544921875 77.435791015625 C6.874679718017575 77.46450035095216 6.874679718017575 77.46450035095216 5.894500732421875 77.49378967285156 C5.204862365722661 77.49712814331053 4.5152239990234335 77.50046661376953 3.8046875 77.50390625 C3.097243957519531 77.51389144897462 2.389800415039062 77.52387664794924 1.660919189453125 77.53416442871094 C0.9310580444335983 77.54158157348633 0.20119689941405738 77.54899871826171 -0.55078125 77.556640625 C-1.3005322265624955 77.55639892578125 -2.050283203125005 77.5561572265625 -2.82275390625 77.555908203125 C-3.5824951171874986 77.55808349609373 -4.342236328124997 77.56025878906252 -5.125 77.5625 C-5.888286132812496 77.58062744140625 -6.651572265624999 77.5987548828125 -7.43798828125 77.617431640625 C-8.191928710937503 77.63604248046875 -8.945869140625 77.65465332031249 -9.72265625 77.673828125 C-10.45185272216797 77.67825424194336 -11.181049194335941 77.68268035888673 -11.932342529296875 77.68724060058594 C-12.990637664794917 77.6893025970459 -12.990637664794917 77.6893025970459 -14.0703125 77.69140625 C-14.76399932861328 77.71296279907227 -15.457686157226561 77.73451934814454 -16.172393798828125 77.75672912597656 C-16.806602478027344 77.74749923706054 -17.440811157226563 77.73826934814451 -18.09423828125 77.728759765625 C-19.0531396484375 77.48826904296874 -20.012041015625 77.2477783203125 -21 77 C-21.18498046875 76.02836914062499 -21.3699609375 75.05673828125 -21.560546875 74.0556640625 C-21.502236938476564 73.2572409057617 -21.502236938476564 73.2572409057617 -21.4427490234375 72.44268798828125 C-21.22358825683594 71.72855743408203 -21.22358825683594 71.72855743408203 -21 71 C-20.327109375 70.4779296875 -19.65421875 69.95585937499999 -18.9609375 69.41796875 C-18.107578125 69.01191406250001 -17.25421875 68.605859375 -16.375 68.1875 C-15.145234375000001 67.43339843749999 -15.145234375000001 67.43339843749999 -13.890625 66.6640625 C-13.266718750000003 66.114921875 -12.642812499999998 65.56578125 -12 65 C-11.891718750000003 64.388984375 -11.783437499999998 63.77796875 -11.671875 63.1484375 C-11.821406250000003 62.460078124999995 -11.970937499999998 61.77171874999999 -12.125 61.0625 C-12.3828125 60.29808593749999 -12.640625 59.53367187500001 -12.90625 58.74609375 C-13.267187499999999 57.83988281250001 -13.628124999999997 56.933671875 -14 56 C-14.206249999999997 55.4407080078125 -14.412500000000001 54.88141601562501 -14.625 54.30517578125 C-14.841562500000002 53.700444335937505 -15.058125000000004 53.09571289062501 -15.28125 52.47265625 C-15.50208251953125 51.84560791015625 -15.7229150390625 51.21855957031249 -15.950439453125 50.572509765625 C-16.173044433593752 49.92983154296874 -16.395649414062504 49.2871533203125 -16.625 48.625 C-16.849538574218748 47.97781005859375 -17.074077148437503 47.33062011718749 -17.305419921875 46.663818359375 C-17.517873535156248 46.02194580078125 -17.730327148437503 45.38007324218751 -17.94921875 44.71875 C-18.1417724609375 44.08839843749999 -18.334326171875 43.45804687500001 -18.53271484375 42.80859375 C-18.6869189453125 42.2117578125 -18.841123046875 41.61492187499999 -19 41 C-19.0858837890625 40.47019531250001 -19.171767578125 39.94039062499999 -19.26025390625 39.39453125 C-19.3045654296875 38.9033984375 -19.348876953125 38.412265625 -19.39453125 37.90625 C-19.4087109375 36.9884375 -19.422890625 36.07062500000001 -19.4375 35.125 C-19.3872265625 34.2523046875 -19.336953125 33.379609375 -19.28515625 32.48046875 C-19.1910546875 31.661914062500003 -19.096953125 30.843359375000006 -19 30 C-18.87431640625 28.849511718749994 -18.87431640625 28.849511718749994 -18.74609375 27.67578125 C-18.6236328125 26.9371484375 -18.501171875 26.198515625 -18.375 25.4375 C-18.189375 24.715625000000003 -18.00375 23.993750000000006 -17.8125 23.25 C-17.544375000000002 22.507499999999993 -17.276249999999997 21.765 -17 21 C-16.608125 20.174999999999997 -16.216250000000002 19.349999999999994 -15.8125 18.5 C-15.338124999999998 17.654375 -14.863749999999996 16.808750000000003 -14.375 15.9375 C-13.850351562500002 15.109921874999998 -13.325703125000004 14.282343749999995 -12.78515625 13.4296875 C-12.5004345703125 13.024599609375002 -12.215712890625 12.619511718750005 -11.92236328125 12.2021484375 C-11.617983398437502 11.805439453125004 -11.313603515624997 11.408730468750008 -11 11 C-10.665971679687502 10.613603515625002 -10.331943359375003 10.227207031250003 -9.98779296875 9.8291015625 C-9.6399072265625 9.454951171874995 -9.292021484374999 9.080800781250005 -8.93359375 8.6953125 C-8.5818408203125 8.334455566406248 -8.230087890625 7.973598632812497 -7.86767578125 7.601806640625 C-7.345363769531247 7.087349853515619 -7.345363769531247 7.087349853515619 -6.8125 6.5625 C-6.158945312500002 5.945039062500001 -5.505390625000004 5.327578125000002 -4.83203125 4.69140625 C-4.227460937499998 4.133242187500002 -3.6228906249999966 3.5750781250000045 -3 3 C-2.4998437499999966 2.378671875000002 -1.9996875000000003 1.7573437499999969 -1.484375 1.1171875 C-0.9945312500000014 0.7485156250000031 -0.5046875000000028 0.37984374999999915 0 0 Z " fill="#EFE81D" transform="translate(50,61)"/>
<path d="M0 0 C0.8456249999999983 -0.20624999999999982 1.6912499999999966 -0.41249999999999964 2.5625 -0.625 C3.769062500000004 -0.3156249999999998 3.769062500000004 -0.3156249999999998 5 0 C5.133015136718754 0.5058764648437499 5.266030273437508 1.0117529296874999 5.403076171875 1.532958984375 C5.490490722656247 2.1601684570312507 5.577905273437494 2.7873779296874996 5.66796875 3.43359375 C5.829665527343749 4.068134765625 5.991362304687499 4.702675781250001 6.157958984375 5.3564453125 C6.574769287109376 6.170004882812499 6.574769287109376 6.170004882812499 7 7 C7.514416503906247 7.261357421875001 8.028833007812494 7.52271484375 8.558837890625 7.7919921875 C9.194265136718755 7.926376953125001 9.829692382812496 8.06076171875 10.484375 8.19921875 C11.172734375000005 8.29396484375 11.861093749999995 8.3887109375 12.5703125 8.486328125 C13.289609374999998 8.55271484375 14.008906249999995 8.6191015625 14.75 8.6875 C15.805742187500002 8.804482421875 15.805742187500002 8.804482421875 16.8828125 8.923828125 C17.576328125000003 9.014707031249998 18.269843750000007 9.105585937500003 18.984375 9.19921875 C19.665644531249995 9.3041162109375 20.346914062500005 9.409013671875002 21.048828125 9.51708984375 C21.692714843749997 9.676450195312498 22.336601562499993 9.835810546875003 23 10 C23.576855468749997 10.2740869140625 24.153710937499994 10.548173828125002 24.748046875 10.83056640625 C25.269472656250002 11.1610498046875 25.790898437500005 11.491533203125002 26.328125 11.83203125 C26.79935791015626 12.190954589843749 27.270590820312492 12.5498779296875 27.756103515625 12.919677734375 C28.166589355468744 13.27618408203125 28.577075195312503 13.6326904296875 29 14 C29.6123046875 14.585234374999999 30.224609375 15.170468749999998 30.85546875 15.7734375 C31.23316406250001 16.508203125 31.61085937499999 17.24296875 32 18 C32.0845947265625 18.545595703125 32.169189453125 19.09119140625 32.25634765625 19.6533203125 C32.29163574218751 20.275615234375 32.32692382812499 20.89791015625 32.36328125 21.5390625 C32.364812011718755 22.1979345703125 32.36634277343751 22.856806640625 32.367919921875 23.53564453125 C32.34048706054688 24.569875488281248 32.34048706054688 24.569875488281248 32.3125 25.625 C32.29614501953125 26.3312451171875 32.279790039062505 27.037490234375 32.262939453125 27.76513671875 C32.22946411132813 28.82498779296875 32.22946411132813 28.82498779296875 32.1953125 29.90625 C32.16211914062501 30.601054687499996 32.12892578124999 31.295859375 32.0947265625 32.01171875 C32.06346679687499 32.6678515625 32.03220703125001 33.323984375 32 34 C31.989365234375 34.5787890625 31.97873046875 35.157578125 31.9677734375 35.75390625 C31.955205078125005 36.2785546875 31.94263671875001 36.803203125 31.9296875 37.34375 C31.849765625000003 38.2615625 31.769843750000007 39.179375 31.6875 40.125 C31.5186328125 40.895859375 31.349765625000003 41.66671875 31.17578125 42.4609375 C30.787773437499993 42.968828125 30.399765625 43.47671875 30 44 C29.14792968750001 44.074765625 28.295859374999992 44.14953125 27.41796875 44.2265625 C26.925305175781247 44.1683935546875 26.432641601562494 44.110224609375 25.925048828125 44.05029296875 C25.41353271484374 43.9511962890625 24.902016601562508 43.852099609375 24.375 43.75 C23.858972167968744 43.6341455078125 23.342944335937503 43.518291015625 22.811279296875 43.39892578125 C22.32441650390625 43.2621240234375 21.8375537109375 43.125322265625 21.3359375 42.984375 C20.565078125 42.65953125 19.79421875 42.3346875 19 42 C19 41.34 19 40.68 19 40 C18.4573046875 39.8285546875 17.914609374999998 39.657109375 17.35546875 39.48046875 C16.640039062499994 39.3837890625 15.924609375000003 39.287109375 15.1875 39.1875 C14.456601562499998 39.1088671875 13.725703124999995 39.030234375 12.97265625 38.94921875 C12.321679687499994 38.9659765625 11.670703125000003 38.982734375 11 39 C10.381249999999994 39.495 9.762500000000003 39.99 9.125 40.5 C8.753749999999997 40.995 8.382499999999993 41.49 8 42 C7.340000000000003 41.67 6.680000000000007 41.34 6 41 C6.332578124999998 40.28650390625 6.332578124999998 40.28650390625 6.671875 39.55859375 C6.7801562500000045 39.0442578125 6.888437499999995 38.529921875 7 38 C6.345156250000002 37.6609765625 5.6903125000000045 37.321953125 5.015625 36.97265625 C4.102968750000002 36.6723046875 3.1903125000000045 36.371953125 2.25 36.0625 C1.34765625 35.7647265625 0.4453125 35.466953125 -0.484375 35.16015625 C-1.7296093749999955 34.58587890625 -1.7296093749999955 34.58587890625 -3 34 C-3.8739843750000063 33.03900390625 -3.8739843750000063 33.03900390625 -4.765625 32.05859375 C-5.1729687499999955 31.3792578125 -5.580312500000005 30.699921875 -6 30 C-6.220429687500001 29.523046875 -6.440859375000002 29.046093749999997 -6.66796875 28.5546875 C-6.832324218750003 27.7851171875 -6.832324218750003 27.7851171875 -7 27 C-7.078632812500004 26.260078125 -7.157265624999994 25.52015625 -7.23828125 24.7578125 C-7.262773437500002 23.888984375 -7.287265625000003 23.02015625 -7.3125 22.125 C-7.304765625000002 21.158203125 -7.297031250000003 20.19140625 -7.2890625 19.1953125 C-7.257158203125002 18.680009765625 -7.225253906250003 18.16470703125 -7.1923828125 17.6337890625 C-7.128896484375005 17.094638671875 -7.065410156249996 16.55548828125 -7 16 C-6.827426757812503 15.141000976562502 -6.827426757812503 15.141000976562502 -6.6513671875 14.2646484375 C-6.506025390624998 13.679736328125 -6.360683593749997 13.094824218749999 -6.2109375 12.4921875 C-6.046823730468745 11.9106591796875 -5.882709960937504 11.329130859374999 -5.713623046875 10.72998046875 C-5.540002441406244 10.159086914062499 -5.366381835937503 9.588193359374998 -5.1875 9 C-5.022258300781246 8.4484423828125 -4.857016601562506 7.896884765625 -4.686767578125 7.32861328125 C-4.51556396484375 6.8076708984375 -4.3443603515625 6.286728515625001 -4.16796875 5.75 C-3.782539062500007 4.842500000000001 -3.3971093749999994 3.9349999999999987 -3 3 C-2.5127343749999937 2.3941406250000004 -2.0254687500000017 1.7882812500000007 -1.5234375 1.1640625 C-0.7693359375000028 0.5878515625 -0.7693359375000028 0.5878515625 0 0 Z " fill="#EF6781" transform="translate(93,7)"/>
</svg>
